<svg width="129" height="128" xmlns="http://www.w3.org/2000/svg" xmlns:xlink="http://www.w3.org/1999/xlink" xml:space="preserve" overflow="hidden"><defs><clipPath id="clip0"><rect x="1048" y="0" width="129" height="128"/></clipPath><clipPath id="clip1"><rect x="1049" y="1" width="128" height="126"/></clipPath><clipPath id="clip2"><rect x="1049" y="1" width="128" height="126"/></clipPath><clipPath id="clip3"><rect x="1049" y="1" width="128" height="126"/></clipPath><linearGradient x1="13.4114" y1="62.44" x2="112.68" y2="62.44" gradientUnits="userSpaceOnUse" spreadMethod="pad" id="fill4"><stop offset="0" stop-color="#130C41" stop-opacity="1"/><stop offset="1" stop-color="#76C8D2" stop-opacity="1"/></linearGradient><linearGradient x1="10.9714" y1="62.2857" x2="115.12" y2="62.2857" gradientUnits="userSpaceOnUse" spreadMethod="pad" id="fill5"><stop offset="0" stop-color="#130C41" stop-opacity="1"/><stop offset="1" stop-color="#76C8D2" stop-opacity="1"/></linearGradient><linearGradient x1="30.6343" y1="81.6057" x2="93.2514" y2="45.4514" gradientUnits="userSpaceOnUse" spreadMethod="pad" id="fill6"><stop offset="0" stop-color="#130C41" stop-opacity="1"/><stop offset="1" stop-color="#76C8D2" stop-opacity="1"/></linearGradient><linearGradient x1="47.6229" y1="100.543" x2="51.2686" y2="100.543" gradientUnits="userSpaceOnUse" spreadMethod="pad" id="fill7"><stop offset="0" stop-color="#130C41" stop-opacity="1"/><stop offset="1" stop-color="#76C8D2" stop-opacity="1"/></linearGradient><linearGradient x1="46.8743" y1="54.8229" x2="79.36" y2="54.8229" gradientUnits="userSpaceOnUse" spreadMethod="pad" id="fill8"><stop offset="0" stop-color="#130C41" stop-opacity="1"/><stop offset="1" stop-color="#76C8D2" stop-opacity="1"/></linearGradient></defs><g clip-path="url(#clip0)" transform="translate(-1048 0)"><g clip-path="url(#clip1)"><g clip-path="url(#clip2)"><g clip-path="url(#clip3)"><path d="M44.6971 33.9314C41.08 32.5543 37.4229 31.3486 33.72 30.36 31.8686 29.8857 29.9771 29.4971 28.08 29.2 26.1886 28.9429 24.2914 28.7714 22.4 28.8571 20.5086 28.9429 18.6114 29.2457 17.0629 30.1943 15.4686 31.0971 14.6514 32.8629 14.6971 34.6686 14.6971 34.8857 14.6971 35.1429 14.7429 35.36 14.7886 35.5771 14.7886 35.8343 14.8286 36.0514 14.9143 36.5257 15 36.9543 15.1714 37.3886L15.3886 38.08 15.6457 38.7257C15.8171 39.1543 15.9886 39.5886 16.2057 40.0171 17.0229 41.7371 18.0114 43.3314 19.1314 44.88 20.2057 46.4286 21.4114 47.9371 22.6629 49.3543 23.9086 50.8171 25.2 52.24 26.5371 53.5714 29.2057 56.3257 32.0457 58.9086 34.9714 61.4057 40.8229 66.3543 47.0229 70.92 53.48 75.0914 59.8914 79.3086 66.5657 83.1429 73.4514 86.5429 80.3371 89.9029 87.4857 92.8286 94.8857 94.68 96.7371 95.1543 98.6286 95.4571 100.526 95.6686 102.423 95.88 104.314 95.9257 106.166 95.6229 107.069 95.4514 107.971 95.2343 108.794 94.8057 109.617 94.3772 110.303 93.8171 110.817 93.0857 111.291 92.3543 111.594 91.4914 111.634 90.5486 111.68 89.6457 111.549 88.6972 111.377 87.7943 110.949 85.9886 110.131 84.2229 109.223 82.5429 108.274 80.8629 107.2 79.2743 106.08 77.72 104.92 76.1714 103.714 74.7086 102.463 73.2457 101.211 71.7829 99.88 70.36 98.5486 68.9829 101.349 71.6514 104.017 74.4514 106.429 77.4629 107.634 78.9714 108.754 80.56 109.743 82.24 110.731 83.92 111.634 85.6857 112.154 87.5771 112.411 88.5257 112.543 89.56 112.497 90.5486 112.451 91.5829 112.154 92.6171 111.594 93.4743 111.034 94.3772 110.171 95.0229 109.269 95.5429 108.366 96.0629 107.377 96.2743 106.383 96.5314 104.4 96.8743 102.423 96.8743 100.486 96.7029 98.5486 96.5314 96.6114 96.2286 94.72 95.8 90.9314 94.9371 87.1886 93.7771 83.5714 92.4 79.9543 91.0229 76.3829 89.4743 72.8971 87.7943 65.9257 84.4343 59.2114 80.6057 52.7086 76.3886 46.2514 72.1257 40.0114 67.52 34.1543 62.4857 31.2286 59.9486 28.3886 57.32 25.6743 54.52 24.3371 53.0971 23.0057 51.68 21.76 50.1714 20.5143 48.6629 19.3086 47.1143 18.2286 45.52 17.1543 43.8857 16.12 42.2057 15.3029 40.44 15.0857 39.9657 14.9143 39.5371 14.7429 39.0629L14.4857 38.3714 14.2686 37.64C14.0971 37.1657 14.0514 36.6514 13.9257 36.1771 13.88 35.92 13.88 35.6629 13.84 35.4 13.7943 35.1429 13.7943 34.8857 13.7943 34.6229 13.7486 33.5886 14.0114 32.5543 14.5257 31.6114 15 30.6629 15.8171 29.9314 16.68 29.4171 18.4857 28.3829 20.5086 28.1257 22.4457 28.08 24.4286 28.0343 26.36 28.2971 28.2571 28.5943 30.1486 28.9371 32.0457 29.4114 33.8971 29.9314 37.5543 31.0514 41.1714 32.3829 44.7029 33.9371Z" fill="url(#fill4)" fill-rule="nonzero" transform="matrix(1 0 0 1.00227 1049 1)"/><path d="M42.1543 89.0286C38.4971 90.2343 34.7486 91.2686 30.96 91.9543 29.0686 92.2971 27.1314 92.6 25.1943 92.7714 23.2571 92.9429 21.32 92.9886 19.3429 92.7714 17.4057 92.5543 15.3829 92.08 13.7029 90.88 12.8857 90.28 12.1543 89.4571 11.7657 88.4686 11.3371 87.48 11.2057 86.4 11.3371 85.4114 11.3371 85.1543 11.3829 84.8971 11.4229 84.6343 11.4629 84.3714 11.5086 84.12 11.5943 83.9029 11.7257 83.4286 11.8514 82.9143 12.0686 82.48L12.3257 81.7886 12.6286 81.0971C12.8457 80.6229 13.1029 80.1943 13.32 79.76 14.3086 78.04 15.4743 76.4457 16.72 74.9371 17.9657 73.4286 19.3029 72.0114 20.68 70.6343 22.0571 69.2571 23.48 67.9657 24.9829 66.6743 27.9086 64.1371 30.9657 61.7657 34.1486 59.5314 40.4743 55.0571 47.1029 51.0514 53.9486 47.4343 60.7943 43.8629 67.8514 40.6343 75.1257 37.92 78.7429 36.5829 82.4457 35.3829 86.1886 34.3486 89.9314 33.3143 93.72 32.4971 97.5943 32.0229 99.5314 31.7657 101.469 31.6343 103.446 31.6343 105.423 31.6343 107.36 31.8057 109.297 32.3657 110.246 32.6686 111.234 33.0114 112.051 33.6114 112.914 34.1714 113.686 34.9486 114.16 35.8914 114.634 36.84 114.851 37.9143 114.76 38.9029 114.714 39.9371 114.457 40.9257 114.114 41.8286 113.423 43.68 112.349 45.36 111.229 46.9486 110.069 48.4971 108.817 50.0057 107.486 51.3829 104.817 54.1829 101.891 56.72 98.8343 59.0857 100.297 57.84 101.72 56.5486 103.137 55.2114 104.514 53.8743 105.891 52.4971 107.183 51.08 108.474 49.6571 109.68 48.1543 110.754 46.6057 111.829 45.0114 112.777 43.3771 113.383 41.5714 113.686 40.6686 113.897 39.7657 113.897 38.8571 113.943 37.9543 113.726 37.0514 113.337 36.2743 112.909 35.4971 112.263 34.8971 111.531 34.3829 110.8 33.8686 109.897 33.6057 109.034 33.3086 107.229 32.8343 105.331 32.7086 103.44 32.7486 101.549 32.7886 99.6514 32.9657 97.76 33.2229 90.2286 34.3829 82.8229 36.6229 75.68 39.3371 68.4914 42.0514 61.52 45.28 54.72 48.8514 47.92 52.4229 41.3314 56.3829 35.0514 60.7771 31.9086 62.9714 28.8514 65.2971 25.9257 67.7486 24.4629 68.9943 23.04 70.2457 21.6629 71.5771 20.2857 72.9143 18.9486 74.2914 17.7029 75.7086 16.4571 77.1714 15.2914 78.68 14.3429 80.2686 14.0857 80.6571 13.8686 81.0857 13.6514 81.5143L13.3486 82.16 13.0914 82.8057C12.8743 83.2343 12.7886 83.6686 12.6171 84.0971 12.5314 84.3143 12.5314 84.5257 12.4857 84.7886 12.44 85.0057 12.4 85.2171 12.4 85.48 12.1429 87.2857 12.8286 89.0971 14.3371 90.1314 15.8 91.2057 17.6514 91.68 19.5429 91.9371 21.4343 92.1943 23.3314 92.24 25.2686 92.1086 27.16 92.0229 29.0971 91.7657 30.9943 91.5086 34.6514 90.9486 38.4 90.0457 42.1429 89.0114Z" fill="url(#fill5)" fill-rule="nonzero" transform="matrix(1 0 0 1.00227 1049 1)"/><path d="M55.3714 62.6857C55.1543 62.4286 55.1543 62.04 55.4171 61.8229 55.68 61.6057 56.0629 61.6057 56.28 61.8686 56.4971 62.1314 56.4971 62.5143 56.2343 62.7314 55.9771 62.9486 55.5886 62.9029 55.3714 62.6857ZM59.9314 54.6343C59.6743 54.3771 59.24 54.3771 59.0286 54.6343 58.7714 54.8914 58.7714 55.3257 59.0286 55.5371 59.2857 55.7943 59.72 55.7943 59.9314 55.5371 60.1429 55.28 60.1886 54.8914 59.9314 54.6343ZM55.4114 66.3429C55.6686 66.56 56.0114 66.56 56.2743 66.2971 56.4914 66.04 56.4914 65.6971 56.2286 65.4343 55.9714 65.2171 55.6286 65.2171 55.3657 65.48 55.1486 65.7371 55.1486 66.1257 55.4114 66.3429ZM60.1886 50.8457C59.8457 50.4571 59.24 50.4571 58.8514 50.8 58.5086 51.1429 58.4629 51.7486 58.8057 52.0914 59.1486 52.48 59.7543 52.48 60.1429 52.1371 60.5314 51.8343 60.5314 51.2343 60.1886 50.8457ZM58.8114 73.7029C59.1143 74.0057 59.5886 74.0057 59.8857 73.7486 60.1886 73.4457 60.1886 72.9714 59.9314 72.6743 59.6286 72.3714 59.1143 72.3314 58.8114 72.6286 58.5543 72.9314 58.5543 73.4057 58.8114 73.7029ZM58.9429 70C59.16 70.2571 59.5429 70.2571 59.8057 70.0457 60.0686 69.8343 60.0629 69.4457 59.8514 69.1829 59.6343 68.9657 59.2514 68.9257 58.9886 69.1371 58.7257 69.3486 58.7314 69.7371 58.9429 70ZM59.0286 62.5943C59.2857 62.8514 59.5886 62.8514 59.8057 62.68 60.0229 62.4629 60.0629 62.2057 59.8514 61.9486 59.6343 61.6914 59.2914 61.6914 59.12 61.9029 58.8629 62.12 58.8629 62.3771 59.0343 62.5943ZM59.8914 59.1486C60.1086 58.9314 60.1086 58.5486 59.8914 58.3314 59.6743 58.1143 59.2914 58.1143 59.0743 58.3314 58.8571 58.5486 58.8571 58.9314 59.0743 59.1486 59.2914 59.32 59.6743 59.32 59.8914 59.1486ZM58.9886 66.2914C59.2057 66.5086 59.5029 66.5486 59.7657 66.3371 59.9829 66.12 59.9829 65.7771 59.7657 65.56 59.5486 65.3429 59.2914 65.3429 59.0343 65.5143 58.8171 65.7314 58.7771 66.0743 58.9886 66.2914ZM58.6 48.7314C59.0743 49.2457 59.8914 49.2457 60.4057 48.7771 60.92 48.3086 60.92 47.4857 60.4057 46.9714 60.36 46.9257 60.32 46.8857 60.2743 46.84 59.5829 47.1829 58.9371 47.4857 58.2514 47.8286 58.2514 48.1714 58.3371 48.52 58.5943 48.7314ZM62.7314 45.6743C63.2457 45.8057 63.8057 45.6743 64.1943 45.2857 64.3257 45.1543 64.4114 45.0286 64.4514 44.8571 63.8914 45.16 63.2914 45.4171 62.7314 45.6743ZM66.2629 66.4229C66.48 66.64 66.8629 66.64 67.08 66.4229 67.2971 66.2057 67.2971 65.8229 67.08 65.6057 66.8629 65.3886 66.48 65.3886 66.2629 65.6057 66.0457 65.8229 66.0457 66.2057 66.2629 66.4229ZM67.04 62.8057C67.2971 62.5886 67.2971 62.2457 67.0857 61.9886 66.8686 61.7714 66.6114 61.7314 66.3543 61.9429 66.0971 62.16 66.0514 62.5029 66.3086 62.72 66.48 62.9771 66.7371 63.0229 67.04 62.8057ZM55.6343 49.2057C56.0629 49.2914 56.5371 49.16 56.84 48.8629 56.9714 48.7314 57.0571 48.6057 57.0971 48.4743 56.6229 48.6914 56.1086 48.9486 55.6343 49.2057ZM56.6686 50.7543C56.28 50.3257 55.5486 50.28 55.16 50.7086 54.7314 51.0971 54.7314 51.7829 55.1143 52.2171 55.4971 52.6514 56.2343 52.6914 56.6229 52.2629 57.0514 51.8343 57.0514 51.1886 56.6686 50.7543ZM55.2914 70.04C55.5486 70.2971 55.9829 70.2971 56.24 70.0857 56.4971 69.8286 56.4971 69.3943 56.2857 69.1371 56.0286 68.88 55.5943 68.88 55.3371 69.0914 55.0343 69.3086 55.0343 69.7829 55.2914 70.04ZM56.4114 54.5429C56.1086 54.24 55.6343 54.2857 55.3371 54.5429 55.0343 54.8457 55.0343 55.32 55.3371 55.6629 55.64 55.9657 56.1543 55.9657 56.4571 55.6629 56.76 55.32 56.7143 54.8457 56.4114 54.5429ZM55.12 73.8286C55.4629 74.1714 56.0686 74.1714 56.4114 73.8286 56.7543 73.4857 56.7543 72.88 56.4114 72.5371 56.0686 72.1943 55.5086 72.1943 55.12 72.5371 54.7771 72.88 54.7771 73.44 55.12 73.8286ZM56.24 58.2057C55.9829 57.9486 55.5943 57.9886 55.3771 58.2514 55.12 58.5086 55.16 58.8971 55.4229 59.1143 55.68 59.3714 56.0686 59.3314 56.2857 59.0686 56.5029 58.8057 56.5029 58.4686 56.24 58.2057ZM63.7714 50.8457C63.4286 50.5029 62.8686 50.5029 62.48 50.8457 62.1371 51.1886 62.0914 51.7943 62.4343 52.1371 62.7771 52.48 63.3829 52.48 63.7257 52.1371 64.0686 51.7943 64.1143 51.1886 63.7714 50.8457ZM69.3257 77.6629C69.8 78.1771 70.6171 78.1771 71.1314 77.7086 71.6457 77.2343 71.6457 76.4171 71.1314 75.9029 70.6572 75.4286 69.7943 75.4286 69.3257 75.9029 68.8514 76.3772 68.8514 77.1943 69.3257 77.6686ZM71.3086 46.8857C70.7486 46.3714 69.8857 46.3714 69.3714 46.9314 68.8114 47.4914 68.8114 48.3543 69.3714 48.9143 69.9314 49.4743 70.7943 49.4743 71.3543 48.8686 71.9143 48.3086 71.8686 47.4057 71.3086 46.8857ZM69.1543 81.4514C69.7543 82.0514 70.6629 82.0514 71.2629 81.4514 71.8629 80.8514 71.8629 79.9429 71.2629 79.3429 70.6629 78.7829 69.8 78.7429 69.1943 79.3429 68.5943 79.9429 68.5943 80.8514 69.1486 81.4514ZM71.4343 43.1829C70.8343 42.5829 69.8857 42.5829 69.28 43.1829 68.6743 43.7829 68.68 44.7314 69.28 45.3371 69.88 45.9429 70.8286 45.9371 71.4343 45.3371 71.9943 44.7771 71.9943 43.7886 71.4343 43.1829ZM69.5429 73.9143C69.9314 74.3029 70.6171 74.2571 70.9657 73.8686 71.3086 73.48 71.3086 72.8343 70.9657 72.4914 70.5771 72.1029 69.9314 72.1029 69.5429 72.4914 69.1543 72.88 69.1543 73.5257 69.5429 73.9143ZM69.76 70.1714C70.0629 70.4743 70.5371 70.4286 70.8343 70.1257 71.1371 69.8229 71.1371 69.3486 70.8343 69.0514 70.5314 68.7543 70.0571 68.7486 69.76 69.0514 69.4571 69.3943 69.4571 69.9143 69.76 70.1714ZM70.92 54.5886C70.5771 54.2 70.0171 54.2 69.6743 54.5886 69.3314 54.9314 69.3314 55.4514 69.6743 55.7943 70.0171 56.1371 70.5371 56.1371 70.88 55.7943 71.2686 55.4514 71.2686 54.9314 70.9257 54.5886ZM71.1771 50.7143C70.7486 50.24 70.0171 50.24 69.5429 50.6686 69.0686 51.0971 69.0686 51.8743 69.4971 52.3029 69.9257 52.7314 70.6572 52.7771 71.0914 52.3486 71.6057 51.92 71.6514 51.1886 71.1771 50.7143ZM65.6686 45.3314C66.2286 45.9314 67.2171 45.9314 67.8229 45.3314 68.3829 44.8171 68.3829 43.9086 67.9543 43.3486 67.0514 43.7371 66.1886 44.1257 65.2857 44.5543 65.3314 44.8114 65.4571 45.0686 65.6743 45.3314ZM62.6571 66.3371C62.9143 66.5543 63.1314 66.5086 63.3486 66.3829 63.6057 66.1257 63.6057 65.8229 63.3943 65.6057 63.1829 65.3886 62.92 65.3886 62.6629 65.6057 62.4457 65.7771 62.4457 66.12 62.6629 66.3371ZM63.56 54.6286C63.3029 54.3714 62.9143 54.3714 62.6971 54.6286 62.44 54.8857 62.44 55.2743 62.6971 55.5314 62.9543 55.7886 63.3429 55.7886 63.6 55.4857 63.8171 55.2686 63.8171 54.8857 63.5543 54.6229ZM67.0914 58.3714C66.8743 58.1543 66.4914 58.1143 66.2286 58.3714 66.0114 58.5886 65.9714 58.9714 66.2286 59.2343 66.4457 59.4514 66.8286 59.4914 67.0914 59.2343 67.3086 58.9771 67.3486 58.5886 67.0914 58.3714ZM62.2286 77.5714C62.6571 78 63.3486 78 63.7771 77.5714 64.2057 77.1429 64.1657 76.4514 63.7771 76.0229 63.3486 75.5943 62.6571 75.6343 62.2286 76.0686 61.84 76.4571 61.84 77.1429 62.2286 77.5771ZM62.4857 73.6971C62.7429 74 63.2629 74 63.52 73.6971 63.8229 73.44 63.8229 72.92 63.52 72.6629 63.2629 72.36 62.7429 72.36 62.4857 72.6629 62.2286 72.92 62.1829 73.3943 62.4857 73.6971ZM64.0343 47.0114C63.56 46.5371 62.7429 46.5371 62.2686 46.9657 61.7543 47.44 61.7543 48.3029 62.2686 48.7714 62.7429 49.2457 63.56 49.2457 64.0343 48.7714 64.5086 48.2971 64.5086 47.48 64.0343 47.0057ZM63.52 59.1086C63.7371 58.8914 63.7371 58.5486 63.52 58.3314 63.3029 58.1143 62.92 58.1143 62.7429 58.3314 62.5257 58.5886 62.5257 58.8457 62.7429 59.1086 62.96 59.3257 63.3029 59.3257 63.52 59.1086ZM70.7943 58.3314C70.5371 58.0286 70.1029 58.0286 69.8057 58.2857 69.5486 58.5429 69.5029 58.9771 69.76 59.2343 70.0171 59.5371 70.4514 59.5371 70.7486 59.28 71.0514 59.0229 71.0514 58.5886 70.7943 58.3314ZM62.5714 69.9943C62.7886 70.2114 63.1714 70.2114 63.3886 70.04 63.6457 69.8229 63.6457 69.44 63.4343 69.1771 63.2171 68.96 62.8343 68.96 62.6171 69.1314 62.36 69.3486 62.36 69.7314 62.5714 69.9943ZM62.7029 62.72C62.92 62.9771 63.1771 62.9371 63.4343 62.72 63.6057 62.5029 63.6514 62.2457 63.3886 61.9886 63.1714 61.7714 62.9143 61.7714 62.6971 61.9886 62.48 62.2457 62.48 62.5029 62.6971 62.72ZM76.4343 48.9429C76.3886 48.2971 76.3486 47.6971 76.3029 47.0514 75.9143 47.6514 75.96 48.4286 76.4343 48.9429ZM77.3829 78.3429C77.4286 77.3543 77.4286 76.32 77.4286 75.3314 77.0857 75.3772 76.7371 75.5029 76.48 75.76 75.88 76.32 75.88 77.3086 76.48 77.9143 76.6971 78.1714 77.04 78.3029 77.3829 78.3429ZM76.9943 85.2286C77.08 84.4114 77.1257 83.5486 77.2114 82.7314 76.9943 82.7771 76.7371 82.9029 76.5657 83.0743 76.0514 83.5886 76.0514 84.4114 76.5657 84.9257 76.6971 85.0971 76.8229 85.1829 76.9943 85.2286ZM77.2514 81.8286C77.2971 80.88 77.3371 79.9371 77.3829 78.9429 77.04 78.9886 76.7371 79.1143 76.48 79.3314 75.88 79.8914 75.88 80.84 76.4343 81.4 76.6514 81.6571 76.9486 81.7886 77.2514 81.8286ZM77.4229 74.6857C77.4229 73.7371 77.4229 72.7486 77.3772 71.8 77.0743 71.8457 76.7771 71.9714 76.5143 72.1886 75.9143 72.7486 75.9143 73.6514 76.4686 74.2571 76.7257 74.5143 77.0686 74.6457 77.4171 74.6857ZM76.4743 52.6057C76.52 52.6514 76.6057 52.7371 76.6914 52.7771 76.6457 52 76.6057 51.2286 76.56 50.4514 76.5297 50.4819 76.5011 50.4971 76.4743 50.4971 75.8743 51.0571 75.8743 52.0457 76.4743 52.6057ZM77.2514 67.24C77.2057 66.4229 77.2057 65.6457 77.1657 64.8286 76.9943 64.8743 76.8229 64.96 76.6514 65.1314 76.1371 65.6057 76.1371 66.4686 76.6514 66.9371 76.8229 67.0686 76.9943 67.1943 77.2514 67.24ZM76.52 56.1371C76.6057 56.2686 76.7371 56.3086 76.8629 56.3943 76.8171 55.6171 76.7771 54.8 76.7314 54.0286 76.6457 54.0743 76.6 54.16 76.5143 54.2 76 54.7143 76 55.5771 76.5143 56.1371ZM77.3371 70.9429C77.3371 70.08 77.2914 69.1771 77.2514 68.3143 76.9943 68.36 76.7371 68.4857 76.56 68.6572 76.0457 69.1714 76.0457 70.0343 76.5143 70.5486 76.7714 70.7657 77.0286 70.8914 77.3314 70.9371ZM60.0343 30.2629C60.2914 29.96 60.2914 29.5714 60.0343 29.2743 59.7314 28.9714 59.3429 28.9714 59.0457 29.2743 58.7486 29.5771 58.7429 29.9657 59.0457 30.2629 59.3029 30.5657 59.7371 30.5657 60.0343 30.2629ZM78.76 40.9829C78.8457 40.68 78.8057 40.3829 78.6743 40.08 78.6743 40.3829 78.72 40.68 78.76 40.9829ZM76.6057 59.7086C76.7371 59.84 76.8629 59.88 76.9943 59.9657 76.9486 59.1886 76.9486 58.4571 76.9086 57.6857 76.8229 57.7314 76.6914 57.8171 76.6057 57.9029 76.0914 58.3771 76.0914 59.1943 76.6057 59.7086ZM58.6114 37.9257C59.1257 38.4 59.9486 38.4 60.4171 37.9257 60.8914 37.4114 60.8914 36.5886 60.4171 36.12 59.9029 35.6457 59.08 35.6457 58.6114 36.12 58.1429 36.5943 58.1371 37.4571 58.6114 37.9257ZM53.1429 52.3886C53.6171 51.9143 53.6171 51.0971 53.1429 50.6229 53.0971 50.5771 53.0571 50.5771 53.0571 50.5371 52.3657 50.9257 51.72 51.2686 51.0343 51.6571 51.08 51.9143 51.1657 52.1714 51.3771 52.3886 51.8514 52.8629 52.6686 52.8629 53.1429 52.3886ZM58.48 41.6686C59.04 42.2286 59.9886 42.2686 60.5486 41.6686 61.1086 41.1086 61.1086 40.16 60.5486 39.6 59.9886 39.04 59.04 39.04 58.48 39.6457 57.92 40.2057 57.92 41.1086 58.48 41.6686ZM73.3714 32.8C73.0286 33.1429 73.0286 33.6629 73.3714 34.0057 73.7143 34.3486 74.2343 34.3486 74.5771 34.0514 74.6229 34.0057 74.6229 33.9657 74.6629 33.9657 74.5771 33.5371 74.4914 33.1486 74.4457 32.72 74.1029 32.4629 73.6286 32.5029 73.3714 32.8057ZM73.5886 30.1714C73.72 30.2571 73.8457 30.3029 73.9771 30.3429 73.8914 30 73.8457 29.6514 73.76 29.3086 73.7143 29.3543 73.6286 29.3943 73.5886 29.44 73.3714 29.6571 73.3714 29.9543 73.5886 30.1714ZM66.1829 69.9886C66.44 70.2457 66.7829 70.2457 67.0457 69.9886 67.3086 69.7314 67.3029 69.3886 67.0457 69.1257 66.7886 68.8629 66.4457 68.8686 66.1829 69.1257 65.9657 69.3829 65.9257 69.7257 66.1829 69.9886ZM58.7771 34.1314C59.2057 34.56 59.8514 34.56 60.24 34.1314 60.6286 33.7029 60.6286 33.0971 60.24 32.6686 59.8114 32.24 59.1657 32.24 58.7771 32.6686 58.3486 33.0971 58.3486 33.7029 58.7771 34.1314ZM62.1771 37.8743C62.6514 38.3886 63.5143 38.3886 64.0286 37.92 64.5429 37.4514 64.5429 36.6286 64.0286 36.1143 63.5543 35.6 62.7371 35.6 62.2229 36.0686 61.7486 36.5829 61.7086 37.4057 62.1771 37.8743ZM67.6457 46.9543C67.1314 46.44 66.3086 46.44 65.7943 46.9543 65.28 47.4686 65.28 48.2914 65.7943 48.8057 66.3086 49.32 67.1314 49.32 67.6457 48.8057 68.16 48.2457 68.16 47.4686 67.6457 46.9543ZM65.5771 81.3886C66.1371 81.9486 67.0857 81.9486 67.6 81.3886 68.16 80.8286 68.1143 79.9257 67.6 79.3657 67.04 78.8057 66.1371 78.8057 65.5771 79.3657 65.0629 79.9257 65.0629 80.8286 65.5771 81.3886ZM73.24 66.6686C73.5829 67.0571 74.2286 67.0114 74.5771 66.6686 74.92 66.3257 74.92 65.72 74.5771 65.3772 74.2343 64.9886 73.5886 65.0343 73.24 65.3772 72.8914 65.72 72.8971 66.28 73.24 66.6686ZM74.5314 63.0114C74.8743 62.6686 74.8743 62.0629 74.5314 61.72 74.1886 61.3771 73.6286 61.3771 73.24 61.72 72.8971 62.0629 72.8971 62.6686 73.24 63.0114 73.6286 63.3543 74.1886 63.3543 74.5314 63.0114ZM65.8343 77.6057C66.3086 78.0343 66.9943 78.0343 67.4286 77.6057 67.8571 77.1314 67.9029 76.4457 67.4286 76.0114 66.9543 75.5371 66.2686 75.5371 65.7943 76.0114 65.3657 76.44 65.3657 77.1314 65.84 77.6057ZM66.0514 73.7314C66.3943 74.0343 66.8686 74.0343 67.1714 73.7314 67.4743 73.3886 67.4743 72.9143 67.1257 72.6114 66.7829 72.3086 66.3086 72.3086 66.0057 72.6114 65.7029 72.9143 65.7029 73.4286 66.0514 73.7314ZM67.2114 54.6171C66.9543 54.3143 66.52 54.3143 66.2229 54.6171 65.9257 54.92 65.92 55.3086 66.2229 55.6057 66.5257 55.9029 66.9143 55.8629 67.2114 55.6057 67.5143 55.3029 67.5143 54.8743 67.2114 54.6171ZM74.6171 58.1029C74.2286 57.7143 73.5829 57.7143 73.1943 58.0571 72.8057 58.4457 72.8057 59.0457 73.1486 59.4343 73.5371 59.8229 74.1829 59.8229 74.5714 59.48 74.96 59.0914 75 58.4914 74.6171 58.1029ZM67.4286 50.7829C67.04 50.3943 66.3943 50.3943 66.0057 50.7829 65.6171 51.1714 65.6171 51.8171 66.0057 52.2057 66.3943 52.5943 67.08 52.5943 67.4286 52.16 67.8171 51.7714 67.8171 51.1257 67.4286 50.7829ZM74.7486 54.3543C74.32 53.88 73.5886 53.88 73.1143 54.3086 72.64 54.7371 72.64 55.4686 73.0686 55.9029 73.4971 56.3771 74.2286 56.3771 74.7029 55.9486 75.1314 55.52 75.1771 54.8286 74.7486 54.3543ZM75.0057 45.2743C75.5657 44.7143 75.6057 43.8114 75.0057 43.2057 74.4057 42.6 73.4971 42.6057 72.9371 43.2057 72.3772 43.7657 72.3371 44.6686 72.9371 45.2743 73.4971 45.8743 74.4 45.8743 75.0057 45.2743ZM72.8114 77.7714C73.3714 78.3314 74.2743 78.3314 74.8343 77.8171 75.3943 77.2571 75.3943 76.3086 74.8343 75.7943 74.2743 75.2343 73.3714 75.2343 72.8114 75.7486 72.2971 76.2629 72.2971 77.2114 72.8114 77.7714ZM75.0514 46.8229C74.4914 46.2229 73.5029 46.2229 72.8971 46.8229 72.3371 47.4229 72.3371 48.3714 72.8971 48.9314 73.4571 49.5314 74.4457 49.5314 75.0514 48.9314 75.6114 48.3314 75.6114 47.3829 75.0514 46.8229ZM73.0286 41.5714C73.5429 42.0857 74.3657 42.0857 74.88 41.5714 75.2229 41.2286 75.3543 40.7543 75.2229 40.28 74.4057 40.5829 73.5886 40.9257 72.8114 41.2686 72.8571 41.3543 72.9429 41.44 73.0286 41.5714ZM73.16 70.3657C73.5886 70.7943 74.2343 70.7543 74.6686 70.32 75.1029 69.8857 75.0572 69.2457 74.6229 68.8114 74.1886 68.3772 73.5486 68.4229 73.1143 68.8571 72.7257 69.2857 72.7257 69.9314 73.16 70.3657ZM76.6457 63.2229C76.7771 63.3543 76.9486 63.44 77.12 63.5257 77.12 63.2686 77.0743 63.0114 77.0743 62.7086 77.0743 62.1943 77.0286 61.72 77.0286 61.2457 76.8971 61.2914 76.7714 61.3771 76.6857 61.4629 76.1714 61.9371 76.1714 62.7543 76.64 63.2286ZM74.84 50.5657C74.3257 50.0514 73.4629 50.0514 72.9486 50.5657 72.4343 51.08 72.4343 51.9886 72.9486 52.5029 73.4629 53.0171 74.3257 53.0171 74.84 52.5029 75.3543 51.9886 75.3543 51.08 74.84 50.5657ZM73.0343 74.1086C73.5086 74.5829 74.3257 74.6229 74.8 74.1086 75.2743 73.6343 75.2743 72.8171 74.8 72.3429 74.3257 71.8686 73.5543 71.8686 73.08 72.3429 72.5657 72.8171 72.5657 73.5886 73.0343 74.1086ZM80.1771 48.8857C80.7371 49.4457 81.5543 49.4457 82.1143 48.8857 82.6743 48.3257 82.6743 47.5086 82.1143 46.9486 81.5543 46.3886 80.7371 46.3886 80.1771 46.9486 79.6171 47.5086 79.6171 48.3257 80.1771 48.8857ZM29.9029 66.4914C30.2457 66.8343 30.8057 66.88 31.1486 66.5371 31.4914 66.1943 31.5371 65.6343 31.1943 65.2914 30.9771 65.0743 30.72 64.9886 30.4629 65.0343 30.2057 65.2514 29.9486 65.4229 29.6857 65.6343 29.6 65.8914 29.64 66.2343 29.9029 66.4971ZM30.16 79.9657C29.9429 80.1829 29.9429 80.5257 30.2057 80.7429 30.4229 80.9143 30.68 80.9143 30.8971 80.6571 31.1143 80.4 31.0686 80.1829 30.8971 79.9257 30.64 79.7543 30.4229 79.7543 30.1657 79.9714ZM33.3429 55.8171C33.7714 56.2457 34.4629 56.2457 34.8914 55.8171 35.32 55.3886 35.32 54.6571 34.8914 54.2229 34.4629 53.7886 33.7714 53.7943 33.3429 54.2229 32.9543 54.6514 32.9143 55.3829 33.3429 55.8171ZM31.0629 72.56C30.76 72.2571 30.2857 72.3029 29.9886 72.6057 29.6857 72.9086 29.7314 73.3829 30.0343 73.68 30.3371 73.9829 30.8114 73.9371 31.1086 73.6343 31.3657 73.3314 31.3257 72.8171 31.0629 72.56ZM30.9771 76.2629C30.72 76.0057 30.3314 76.0057 30.0743 76.2629 29.8171 76.52 29.8571 76.9086 30.0743 77.1257 30.3314 77.3829 30.72 77.3829 30.9771 77.1257 31.2343 76.9086 31.2343 76.5257 30.9771 76.2629ZM34.9371 72.3886C34.5486 71.96 33.8629 71.9143 33.4286 72.3429 33 72.7314 33 73.4171 33.3829 73.8514 33.7657 74.2857 34.4571 74.3257 34.8914 73.8971 35.28 73.4686 35.32 72.8229 34.9371 72.3886ZM34.8057 76.0457C34.4171 75.6571 33.8571 75.6571 33.4686 76 33.08 76.3886 33.08 76.9886 33.4686 77.3772 33.8571 77.7657 34.4171 77.7657 34.8057 77.3772 35.1943 76.9886 35.1943 76.4286 34.8057 76.04ZM33.7314 83.4914C33.4743 83.7086 33.4743 84.0914 33.6857 84.3543 33.8971 84.6171 34.2857 84.6114 34.5486 84.4 34.8114 84.1886 34.8057 83.8 34.5943 83.5371 34.3771 83.32 33.9943 83.28 33.7314 83.4914ZM34.9371 68.6857C34.4629 68.2114 33.7771 68.2114 33.3429 68.6857 32.9143 69.1143 32.9143 69.8057 33.2971 70.2343 33.7257 70.7086 34.4571 70.7086 34.8914 70.28 35.3657 69.8514 35.4057 69.16 34.9371 68.6857ZM34.9829 65.0686C34.5543 64.5943 33.7771 64.5943 33.3486 65.0229 32.8743 65.4514 32.8743 66.2286 33.3029 66.6572 33.7314 67.1314 34.5486 67.1314 34.9829 66.7029 35.4171 66.2743 35.4114 65.4971 34.9829 65.0686ZM33.52 48.3657C33.8629 48.7086 34.3829 48.7543 34.7257 48.4114 35.0686 48.0686 35.1143 47.5486 34.7714 47.2057 34.4286 46.8629 33.9086 46.8171 33.5657 47.16 33.2229 47.5029 33.1771 48.0229 33.52 48.3657ZM34.5086 40.92C34.7257 40.7029 34.7257 40.4457 34.4629 40.1029 34.3314 40.1029 34.0343 40.0571 34.0343 40.1029 33.9886 40.4057 33.3886 40.4914 33.7771 40.88 33.9943 41.1371 34.2514 41.1371 34.5086 40.9257ZM33.6914 44.6629C33.9486 44.92 34.3829 44.92 34.64 44.6629 34.8971 44.4057 34.8971 43.9714 34.64 43.7143 34.3829 43.4571 33.9486 43.4571 33.6914 43.7143 33.3886 43.9714 33.3886 44.4057 33.6914 44.6629ZM33.4343 52.1086C33.8229 52.4971 34.4686 52.4971 34.8571 52.1086 35.2457 51.72 35.2457 51.0743 34.8571 50.6857 34.4686 50.2971 33.8229 50.2971 33.4343 50.64 33.0457 51.0286 33.0457 51.7143 33.4343 52.1029ZM35.1143 58.0057C35.0686 57.92 35.0286 57.8743 34.9829 57.8343 34.5543 57.4057 33.8229 57.4057 33.3486 57.8343 33.0914 58.0514 33.0057 58.3943 33.0057 58.6971 33.1771 58.8686 33.3486 59 33.52 59.1714 34.0343 58.7429 34.5543 58.3543 35.1143 58.0114ZM30.9371 48.1943C31.1543 47.9771 31.1543 47.5943 30.9371 47.3771 30.72 47.16 30.3371 47.16 30.12 47.3771 29.9029 47.5943 29.9029 47.9771 30.12 48.1943 30.3371 48.4114 30.72 48.4114 30.9371 48.1943ZM30.0343 51.8514C30.2914 52.1543 30.7257 52.1543 31.0229 51.8971 31.28 51.64 31.3257 51.2057 31.0686 50.9486 30.8114 50.6457 30.3771 50.6457 30.08 50.9029 29.7771 51.16 29.7771 51.5943 30.0343 51.8514ZM26.5486 69.1143C26.3314 69.3314 26.3314 69.6743 26.5943 69.8457 26.8514 70.0629 27.0686 70.0171 27.3257 69.8 27.4971 69.5429 27.5429 69.2857 27.28 69.0686 27.0229 68.8971 26.7657 68.8971 26.5486 69.1143ZM29.9943 55.6C30.2971 55.9029 30.7714 55.9029 31.1143 55.6 31.4171 55.2971 31.4571 54.8229 31.16 54.48 30.8629 54.1371 30.3829 54.1371 30.04 54.4343 29.6514 54.7771 29.6514 55.2514 29.9943 55.5943ZM31.1543 68.9029C30.8514 68.56 30.2914 68.56 29.9486 68.8571 29.6057 69.2 29.6057 69.76 29.9486 70.0629 30.2914 70.3657 30.8114 70.3657 31.1543 70.0629 31.4571 69.76 31.4571 69.2457 31.1543 68.9029ZM82.16 75.8343C81.6 75.2743 80.6971 75.2743 80.1371 75.7886 79.5771 76.3486 79.5771 77.2514 80.0914 77.8114 80.6514 78.3714 81.5543 78.3714 82.1143 77.8571 82.7143 77.3429 82.7143 76.3943 82.16 75.8343ZM80.3943 86.9371C80.0057 87.3257 80.0057 87.9714 80.3943 88.36 80.7829 88.7486 81.3829 88.7486 81.7714 88.36 82.16 87.9714 82.16 87.3714 81.7714 86.9829 81.3829 86.5543 80.7829 86.5543 80.3943 86.9371ZM82.0743 79.5314C81.56 79.0171 80.7371 79.0171 80.2229 79.5314 79.7086 80.0457 79.6629 80.8686 80.1771 81.3829 80.6914 81.8971 81.5143 81.8971 82.0286 81.3829 82.5886 80.8686 82.5886 80.0457 82.0743 79.5314ZM34.68 79.7886C34.3771 79.4857 33.9029 79.4857 33.56 79.7886 33.2171 80.1314 33.2171 80.6057 33.56 80.9086 33.9029 81.2114 34.3771 81.2114 34.68 80.8629 35.0229 80.56 35.0229 80.0857 34.68 79.7886ZM74.3257 95.3714C74.6286 95.1143 74.6286 94.68 74.3714 94.3829 74.1143 94.0857 73.68 94.08 73.3829 94.3371 73.08 94.64 73.08 95.0686 73.3371 95.3714 73.64 95.6286 74.0686 95.6286 74.3257 95.3714ZM63.9543 79.4C63.44 78.8857 62.5771 78.84 62.0171 79.4L61.9714 79.4457C62.7486 79.8743 63.52 80.3486 64.2971 80.7829 64.4686 80.3086 64.3429 79.7943 63.9543 79.4057ZM54.7429 79.3543C54.1829 79.9143 54.1829 80.8171 54.6971 81.3772 55.2571 81.9771 56.2057 81.9771 56.7657 81.4229 57.1086 81.08 57.24 80.6457 57.1943 80.2171 56.5486 79.8286 55.9029 79.44 55.2571 79.0572 55.0857 79.1029 54.9143 79.1886 54.7429 79.36ZM81.9486 83.1829C81.52 82.7086 80.7029 82.7086 80.2686 83.1829 79.84 83.6114 79.7943 84.3886 80.2686 84.8629 80.6971 85.3371 81.5143 85.3371 81.9486 84.8629 82.3772 84.3886 82.3772 83.6571 81.9486 83.1829ZM48.1143 32.8229C47.8114 33.1257 47.8114 33.6 48.1143 33.9429 48.4171 34.2457 48.8914 34.2457 49.2343 33.9429 49.5371 33.64 49.5371 33.1657 49.2343 32.8229 48.8914 32.52 48.4171 32.52 48.1143 32.8229ZM71.3143 82.9714C70.7543 82.3714 69.8057 82.3714 69.2057 82.9257 69.0743 83.0572 68.9886 83.1829 68.9486 83.3143 69.8114 83.7886 70.6686 84.2171 71.5771 84.6914 71.8343 84.1314 71.7486 83.4457 71.32 82.9714ZM38.7314 68.5543C38.2171 68.04 37.3943 68.04 36.84 68.5086 36.3257 69.0229 36.28 69.8857 36.7943 70.4457 37.3086 70.96 38.1314 70.96 38.6857 70.4914 39.2 69.9771 39.2457 69.0686 38.7314 68.5543ZM38.6457 72.2114C38.1314 71.7371 37.3543 71.7371 36.84 72.2114 36.3257 72.6857 36.3257 73.5029 36.84 74.0171 37.3543 74.5314 38.1771 74.5314 38.6914 74.0171 39.1657 73.5029 39.1657 72.68 38.6457 72.2114ZM36.7943 66.8286C37.2229 67.2571 37.8686 67.3429 38.3886 67.0857 37.7429 66.5714 37.0971 66.0514 36.4514 65.4914 36.32 65.9657 36.4514 66.48 36.7943 66.8286ZM38.6 75.8686C38.1257 75.3943 37.3543 75.44 36.92 75.9143 36.4457 76.3886 36.4914 77.16 36.9657 77.5943 37.44 78.0686 38.2114 78.0229 38.6457 77.5486 39.0743 77.0743 39.0743 76.3029 38.6 75.8686ZM44.6686 68.08C45.2686 68.5086 45.8743 68.9429 46.4343 69.3714 46.3886 69.0286 46.3029 68.7257 46.0457 68.4686 45.6571 68.08 45.1429 67.9543 44.6686 68.08ZM38.3829 83.32C38.04 82.9771 37.52 82.9771 37.1771 83.32 36.8343 83.6629 36.8343 84.1829 37.1771 84.5257 37.52 84.9143 38.08 84.9143 38.4229 84.5257 38.7257 84.1829 38.7257 83.6629 38.3771 83.32ZM38.5143 79.5771C38.0857 79.1486 37.44 79.1486 37.0057 79.5771 36.5714 80.0057 36.5771 80.6514 37.0057 81.0857 37.4343 81.52 38.08 81.5143 38.5143 81.0857 38.9486 80.6571 38.9429 80.0114 38.5143 79.5771ZM37.2686 87.1943C37.0114 87.4514 37.0114 87.7943 37.2229 88.0572 37.48 88.3143 37.8229 88.3143 38.0857 88.1029 38.3429 87.8457 38.3429 87.5029 38.1314 87.24 37.9143 86.9371 37.5314 86.9371 37.2686 87.1943ZM69.68 34.0343C70.0686 34.4229 70.6286 34.4229 71.0171 34.08 71.4057 33.6914 71.4457 33.0914 71.0629 32.7029 70.6743 32.3143 70.1143 32.3143 69.7257 32.6571 69.2971 33.0857 69.2971 33.6457 69.68 34.0343ZM70.7543 62.8286C71.0114 62.5714 71.0114 62.2286 70.8 61.9657 70.5429 61.7086 70.1543 61.6629 69.8971 61.92 69.64 62.1771 69.64 62.52 69.8514 62.7829 70.0686 63.04 70.4514 63.0857 70.7543 62.8286ZM70.8 30.2C71.0571 29.9429 71.0571 29.6 70.8 29.3371 70.5429 29.0743 70.2 29.08 69.9371 29.3371 69.6743 29.5943 69.68 29.9371 69.9371 30.2 70.1943 30.4629 70.5371 30.4571 70.8 30.2ZM69.5086 37.8629C69.9829 38.3371 70.7543 38.3371 71.2286 37.8629 71.7029 37.3886 71.7029 36.6171 71.2286 36.1429 70.7543 35.6686 70.0229 35.6686 69.5486 36.1429 69.0343 36.6171 69.0343 37.3486 69.5029 37.8629ZM74.76 36.1829C74.3314 35.7543 73.64 35.7543 73.2114 36.1829 72.7371 36.6571 72.7371 37.3429 73.2114 37.7771 73.2571 37.8229 73.2971 37.8229 73.3429 37.8629 73.9429 37.6457 74.5486 37.4343 75.1086 37.2171 75.1543 36.8743 75.0629 36.4857 74.7657 36.1829ZM67.2286 30.24C67.4857 29.9829 67.4857 29.5486 67.2286 29.2914 66.9714 29.0343 66.4971 29.0343 66.24 29.2914 65.9829 29.5486 65.9829 29.9829 66.24 30.24 66.5429 30.5429 66.9714 30.5429 67.2286 30.24ZM80.2686 45.1771C80.7429 45.6514 81.6057 45.6514 82.0743 45.1771 82.5429 44.7029 82.5486 43.8857 82.0743 43.4114 81.6 42.9371 80.7829 42.9371 80.3086 43.4114 79.7943 43.8857 79.7943 44.7029 80.2629 45.1771ZM65.3772 41.0857C66.28 40.6971 67.1429 40.3086 68.0057 39.9657 67.92 39.8343 67.8743 39.7086 67.7486 39.5771 67.1886 39.0171 66.2857 39.0171 65.7257 39.5314 65.3371 39.96 65.2114 40.5657 65.3829 41.08ZM66.0229 34.1143C66.4114 34.5029 67.0971 34.5029 67.4857 34.1143 67.8743 33.7257 67.8743 33.04 67.4857 32.6514 67.0971 32.2629 66.4514 32.2629 66.0629 32.6514 65.6343 33.04 65.6343 33.6857 66.0171 34.1143ZM65.8514 37.8571C66.3257 38.3714 67.1429 38.3714 67.6572 37.9029 68.1314 37.4286 68.1314 36.6114 67.7029 36.1371 67.2286 35.6229 66.4114 35.6229 65.8971 36.0914 65.3829 36.5657 65.3829 37.3829 65.8514 37.8571ZM74.9314 79.3086C74.3314 78.7086 73.3371 78.7486 72.7771 79.3086 72.1771 79.9086 72.2171 80.9029 72.7771 81.4629 73.3772 82.0629 74.3714 82.0229 74.9314 81.4629 75.5314 80.8629 75.4914 79.8686 74.9314 79.3086ZM72.8629 83.0114C72.3029 83.5714 72.3486 84.4743 72.9086 84.9943 73.4686 85.5543 74.3714 85.5086 74.8914 84.9486 75.4514 84.3886 75.4057 83.4857 74.8914 82.9657 74.2914 82.4514 73.3829 82.4514 72.8686 83.0114ZM82.2457 57.7029C81.6857 57.1029 80.6971 57.1029 80.0914 57.7029 79.96 57.8343 79.8343 58.0057 79.7886 58.1771L79.7886 59.4229C79.8743 59.5943 79.96 59.7257 80.0914 59.8514 80.6914 60.4514 81.6857 60.4114 82.2457 59.8514 82.8057 59.2057 82.8057 58.2571 82.2457 57.6971ZM63.6057 30.2857C63.9086 29.9829 63.9086 29.5543 63.6057 29.2514 63.3029 28.9486 62.8743 28.9486 62.6171 29.2514 62.3143 29.5543 62.3143 29.9829 62.6171 30.2857 62.92 30.5429 63.3486 30.5429 63.6057 30.2857ZM81.9429 41.3886C82.3714 41 82.3714 40.2686 81.9886 39.84 81.6057 39.4114 80.9143 39.4114 80.48 39.7943 80.0457 40.1771 80.0057 40.8686 80.3943 41.3429 80.7829 41.7714 81.5143 41.8171 81.9429 41.3886ZM38.6857 54.0857C38.1714 53.5714 37.3486 53.5714 36.8343 54.0857 36.32 54.6 36.32 55.4229 36.8343 55.9371 37.0514 56.1543 37.2629 56.24 37.5257 56.28 38.04 55.9371 38.5143 55.5886 39.0343 55.2914 39.12 54.9029 39.0343 54.4286 38.6914 54.0857ZM80.0971 52.5771C80.6971 53.1371 81.56 53.1771 82.1657 52.5771 82.7714 51.9771 82.7657 51.0686 82.1657 50.4686 81.5657 49.9086 80.7029 49.8686 80.0971 50.4686 79.5371 51.0686 79.4971 51.9771 80.0971 52.5771ZM51.6457 66.3943C51.9486 66.6971 52.4629 66.7371 52.7657 66.44 53.0686 66.1371 53.0686 65.6629 52.7657 65.3657 52.4629 65.0686 51.9886 65.0629 51.6914 65.32 51.3886 65.5771 51.3886 66.0971 51.6457 66.3943ZM79.7943 62.9486C79.88 63.12 79.9657 63.2914 80.0971 63.4229 80.6971 64.0229 81.6057 64.0229 82.2057 63.4229 82.8057 62.8229 82.8057 61.9143 82.2057 61.3143 81.6057 60.7143 80.6971 60.7143 80.0971 61.3143 79.9657 61.4457 79.84 61.6171 79.7943 61.7886L79.7943 62.9486ZM82.2057 67.04C82.8057 66.48 82.8057 65.5314 82.2514 64.9314 81.6971 64.3314 80.7429 64.3314 80.1429 64.8857 80.0114 65.0171 79.9257 65.1429 79.84 65.3143L79.84 66.6514C79.9257 66.7829 80.0114 66.9086 80.0971 67.04 80.6571 67.6 81.6057 67.64 82.2057 67.04ZM69.8514 66.44C70.1086 66.6971 70.5429 66.6971 70.7543 66.44 71.0114 66.1829 71.0114 65.7486 70.7543 65.5371 70.4971 65.28 70.0629 65.28 69.8514 65.5371 69.5943 65.7943 69.5943 66.2286 69.8514 66.44ZM40.7543 41.3429C41.1429 41.7314 41.7886 41.6857 42.1314 41.3429 42.52 40.9543 42.52 40.3086 42.1314 39.92 41.7429 39.5314 41.0971 39.5771 40.7543 39.92 40.3657 40.3086 40.3657 40.9543 40.7543 41.3429ZM41.9143 37.5143C42.2171 37.2571 42.2171 36.8229 42 36.5257 41.7429 36.2229 41.2686 36.1829 40.9657 36.44 40.6629 36.6971 40.6629 37.1714 40.92 37.4743 41.1771 37.7771 41.6114 37.7771 41.9086 37.52ZM40.5371 45.0057C40.9657 45.48 41.7429 45.48 42.1714 45.0514 42.6457 44.6229 42.6457 43.8457 42.2171 43.4171 41.7886 42.9429 41.0114 42.9429 40.5829 43.3714 40.1086 43.76 40.1086 44.5314 40.5371 45.0057ZM36.88 52.28C37.3543 52.7543 38.1257 52.7543 38.6 52.28 39.1143 51.8057 39.1143 51.0343 38.6 50.5143 38.1257 50.04 37.3543 50.04 36.88 50.5143 36.4057 50.9886 36.4057 51.76 36.88 52.28ZM36.9657 48.5771C37.3943 49.0514 38.1257 49.0514 38.56 48.5771 38.9886 48.1486 38.9886 47.4571 38.56 47.0286 38.1314 46.5543 37.4 46.5543 36.9657 47.0286 36.5371 47.4571 36.5371 48.1486 36.9657 48.5771ZM38.1714 37.3829C38.3886 37.1257 38.4286 36.9086 38.2171 36.6514 38.0057 36.3943 37.7429 36.3943 37.4857 36.6057 37.2286 36.8229 37.2286 37.1657 37.44 37.3371 37.6971 37.5943 37.9143 37.5543 38.1714 37.3829ZM40.4514 48.7029C40.9657 49.2171 41.7886 49.2171 42.3029 48.7029 42.8171 48.1886 42.8171 47.3657 42.3029 46.8514 41.7886 46.3371 40.9657 46.3371 40.4514 46.8514 39.9371 47.3657 39.9371 48.1886 40.4514 48.7029ZM37.2229 41.0857C37.48 41.3886 38 41.3886 38.2571 41.0857 38.56 40.8286 38.56 40.3086 38.2571 40.0514 38 39.7486 37.48 39.7486 37.2229 40.0514 36.9657 40.3086 36.9657 40.7829 37.2229 41.0857ZM37.0914 44.8286C37.48 45.2171 38.04 45.2171 38.4286 44.8743 38.8171 44.4857 38.8571 43.8857 38.4743 43.4971 38.0857 43.1086 37.5257 43.1086 37.1371 43.4514 36.7086 43.84 36.7086 44.44 37.0914 44.8286ZM40.36 52.4057C40.92 52.9657 41.7829 52.9657 42.3429 52.4057 42.9029 51.8457 42.9029 50.9829 42.3429 50.4229 41.7829 49.8629 40.88 49.8629 40.36 50.4686 39.8457 50.9829 39.8457 51.8457 40.36 52.4057ZM54.9943 37.8571C55.4686 38.3314 56.2857 38.3314 56.76 37.8571 57.2343 37.3829 57.2343 36.6114 56.76 36.1371 56.2857 35.6229 55.5143 35.6229 54.9943 36.0914 54.52 36.6057 54.52 37.3829 54.9943 37.8571ZM54.8629 41.6C55.4229 42.16 56.3714 42.16 56.8857 41.6 57.4457 41.04 57.4457 40.1371 56.8857 39.5771 56.3257 39.0171 55.3771 39.0171 54.8629 39.5771 54.3486 40.1371 54.3486 41.0857 54.8629 41.6ZM60.5886 43.1943C60.0286 42.5943 59.04 42.5943 58.4343 43.1486 58.0914 43.4914 57.96 44.0114 58.0057 44.44 58.8686 44.0114 59.7257 43.6229 60.5886 43.1943 60.5886 43.24 60.5886 43.1943 60.5886 43.1943ZM64.12 39.5771C63.52 39.0171 62.6114 39.0171 62.0514 39.6229 61.4914 40.2286 61.4914 41.1314 62.0971 41.6914 62.4 41.9943 62.7886 42.12 63.1714 42.12 63.5143 41.9486 63.8629 41.8171 64.2057 41.6457 64.72 41.0457 64.72 40.1371 64.12 39.5771ZM56.3314 30.28C56.5886 30.0229 56.6343 29.5886 56.3771 29.3314 56.12 29.0743 55.6857 29.0743 55.4286 29.2857 55.1714 29.5429 55.1257 29.9771 55.3829 30.2343 55.64 30.4914 56.0743 30.4914 56.3314 30.28ZM56.9771 43.1943C56.4171 42.5943 55.4286 42.5943 54.8229 43.1486 54.2629 43.7086 54.2229 44.6571 54.7771 45.2571 54.9943 45.4743 55.2514 45.6457 55.5543 45.6857 56.1143 45.3829 56.6743 45.1257 57.2343 44.8229 57.4914 44.3086 57.4057 43.6171 56.9771 43.1886ZM55.1714 34.0686C55.56 34.4571 56.2057 34.4971 56.5943 34.1143 56.9829 33.7257 56.9829 33.08 56.64 32.6914 56.2514 32.3029 55.6057 32.3029 55.2171 32.6914 54.8286 33.0343 54.7886 33.68 55.1714 34.0686ZM62.4057 34.1143C62.8343 34.5429 63.48 34.5429 63.8686 34.1143 64.2971 33.6857 64.2971 33.04 63.8686 32.6514 63.44 32.2229 62.7943 32.2629 62.4057 32.6971 61.9771 33.0857 61.9771 33.6857 62.4057 34.12ZM53.0629 77.76 53.1486 77.6743C52.4171 77.2 51.64 76.7257 50.9086 76.2114 50.6914 76.6857 50.7771 77.2857 51.1657 77.6743 51.64 78.2343 52.5029 78.2743 53.0571 77.76ZM44.3657 36.3486C44.0229 36.6914 44.0229 37.2971 44.3657 37.64 44.7086 38.0286 45.3543 38.0286 45.7029 37.64 46.0457 37.2971 46.0457 36.6914 45.7029 36.3486 45.36 35.96 44.7543 35.96 44.3657 36.3486ZM44.1943 39.7943C43.7657 40.2686 43.7657 40.9543 44.1943 41.4286 44.6229 41.9029 45.4 41.9029 45.8286 41.4286 46.2571 40.9543 46.2571 40.2229 45.8286 39.7943 45.4 39.32 44.6229 39.3657 44.1943 39.7943ZM44.0629 83.0971C43.5886 83.5714 43.5886 84.3886 44.0629 84.8629 44.5371 85.3371 45.3543 85.3371 45.8286 84.8629 46.3029 84.3886 46.3029 83.5714 45.8286 83.0971 45.3543 82.6229 44.5371 82.6229 44.0629 83.0971ZM44.6629 33.8514C44.6629 33.8514 44.7086 33.8514 44.7086 33.8971 44.7086 33.8971 44.7086 33.8514 44.6629 33.8514 44.92 34.0686 45.2629 34.0229 45.48 33.8057 45.7371 33.5486 45.7371 33.2057 45.48 32.9429 45.2229 32.68 44.88 32.6857 44.6171 32.9429 44.3543 33.2 44.36 33.5429 44.6171 33.8057 44.6171 33.8514 44.6629 33.8514 44.6629 33.8514ZM48.7543 49.3486C49.1429 49.1314 49.5314 48.92 49.8743 48.7029 50.2629 48.1029 50.2171 47.28 49.7029 46.7657 49.1429 46.1657 48.1543 46.1657 47.5486 46.7657 46.9486 47.3257 46.9486 48.3143 47.5486 48.92 47.8914 49.2229 48.3257 49.3943 48.7543 49.3486ZM49.5714 41.5143C50.0457 41 50.0457 40.2229 49.5714 39.7086 49.0571 39.2343 48.28 39.2343 47.7657 39.7086 47.2514 40.2229 47.2514 41.0457 47.7657 41.56 48.28 42.0343 49.1029 41.9886 49.5714 41.5143ZM49.7029 45.2171C50.2629 44.6571 50.2171 43.7086 49.6571 43.1943 49.0971 42.6343 48.1486 42.68 47.6343 43.24 47.0743 43.8 47.12 44.7486 47.68 45.2629 48.24 45.8229 49.1429 45.7771 49.7029 45.2171ZM40.88 90.8C40.6629 91.0171 40.6629 91.4 40.88 91.6629 41.0971 91.88 41.48 91.88 41.7429 91.6629 41.96 91.4457 41.96 91.0629 41.7429 90.8 41.5257 90.5829 41.1429 90.5829 40.88 90.8ZM43.9771 46.7657C43.4171 47.3257 43.4171 48.2286 43.9314 48.7886 44.4914 49.3486 45.44 49.3486 46 48.7886 46.56 48.2286 46.56 47.3257 46 46.7657 45.44 46.2057 44.5371 46.2057 43.9771 46.7657ZM40.4914 79.3943C39.9771 79.8686 39.9771 80.7314 40.4914 81.2 40.9657 81.6743 41.7829 81.6743 42.2571 81.2 42.7314 80.7257 42.7314 79.9086 42.2571 79.4343 41.8286 78.96 41.0114 78.96 40.4914 79.3886ZM44.4514 94.5886C44.4514 94.72 44.4057 94.9771 44.4971 95.1029 44.7143 95.4057 45.0971 95.4057 45.2743 95.2343 45.4914 95.0171 45.4914 94.6743 45.2286 94.5029 45.0114 94.2457 44.8 94.2857 44.4514 94.5886ZM46.0857 74.1429C46.3429 73.8857 46.4743 73.5429 46.5143 73.1943 45.8229 72.72 45.1371 72.2057 44.4457 71.6857 44.2743 71.7714 44.1029 71.8571 43.9314 72.0286 43.3314 72.5886 43.3314 73.5771 43.9314 74.1829 44.4914 74.7429 45.48 74.7429 46.0857 74.1371ZM44.3657 90.6743C44.0629 90.9771 44.0629 91.4514 44.3657 91.7943 44.6686 92.0971 45.1429 92.0971 45.4857 91.7943 45.7886 91.4914 45.7886 91.0171 45.4857 90.6743 45.1429 90.3714 44.6686 90.3714 44.3657 90.6743ZM44.1943 86.8857C43.7657 87.3143 43.7657 87.96 44.1943 88.3943 44.6229 88.8286 45.2686 88.8229 45.7029 88.3943 46.1371 87.9657 46.1314 87.32 45.7029 86.8857 45.2743 86.4514 44.6286 86.4571 44.1943 86.8857ZM40.3657 72.0343C39.7657 72.5943 39.7657 73.5429 40.32 74.1029 40.88 74.6629 41.7829 74.7029 42.3429 74.1486 42.9429 73.5886 42.9429 72.64 42.3886 72.08 41.8743 71.52 40.9657 71.52 40.3657 72.0343ZM49.4457 37.7257C49.8343 37.2971 49.8343 36.6514 49.4457 36.2171 49.0571 35.7829 48.3257 35.7886 47.8971 36.2171 47.4686 36.6457 47.4686 37.3371 47.8971 37.7657 48.3257 38.1543 49.0171 38.1543 49.4457 37.72ZM40.7086 87.0114C40.3657 87.3543 40.3657 87.8743 40.7086 88.2171 41.0514 88.56 41.5714 88.56 41.9143 88.2171 42.2571 87.8743 42.2571 87.3543 41.9143 87.0114 41.5714 86.6686 41.0514 86.6686 40.7086 87.0114ZM40.5371 83.2229C40.1086 83.6514 40.1086 84.3829 40.5371 84.8171 40.9657 85.2057 41.6571 85.2057 42.0857 84.7714 42.5143 84.3371 42.4743 83.6514 42.0857 83.2229 41.6971 82.7943 40.9657 82.7943 40.5371 83.2229ZM40.4057 75.7314C39.8457 76.2457 39.8457 77.1543 40.4057 77.6686 40.92 78.1829 41.7829 78.1829 42.2971 77.6686 42.8571 77.1543 42.8571 76.2457 42.2971 75.7314 41.8229 75.2171 40.96 75.2171 40.4057 75.7314ZM44.1086 43.32C43.5943 43.8343 43.5943 44.6571 44.1086 45.1714 44.6229 45.6857 45.4457 45.6857 45.96 45.1714 46.4743 44.6571 46.4743 43.8343 45.96 43.32 45.4457 42.8057 44.6229 42.8057 44.1086 43.32ZM53.3657 45.3029C53.9257 44.7029 53.9257 43.7543 53.3657 43.1943 52.8057 42.5943 51.8171 42.5943 51.2114 43.1943 50.6114 43.7543 50.6114 44.7429 51.2114 45.3486 51.8114 45.8629 52.8057 45.8629 53.3657 45.3029ZM51.4286 37.8114C51.8571 38.2857 52.6743 38.2857 53.1086 37.8571 53.5429 37.4286 53.5829 36.6514 53.1543 36.1771 52.7257 35.7029 51.9086 35.7029 51.4743 36.1314 51 36.6057 51 37.3371 51.4286 37.8114ZM51.3429 41.6C51.8571 42.1143 52.72 42.1143 53.2343 41.6 53.7943 41.0857 53.7943 40.1771 53.2343 39.6629 52.72 39.1486 51.8571 39.1486 51.3429 39.6629 50.7829 40.1771 50.7829 41.04 51.3429 41.6ZM77.8171 34.0686C77.9029 34.0229 77.9886 33.9829 78.0743 33.8971 78.3772 33.64 78.3772 33.2057 78.12 32.9086 77.9486 32.7371 77.7771 32.6914 77.6057 32.6914 77.6514 33.12 77.7371 33.5943 77.8229 34.0686ZM53.3257 46.8514C52.7657 46.2514 51.8629 46.2514 51.2571 46.8057 50.8686 47.1943 50.7429 47.7086 50.8286 48.1829 51.6914 47.7086 52.5086 47.28 53.3257 46.8457ZM84.4057 37.4229C84.6229 37.68 85.0057 37.68 85.2686 37.4686 85.4857 37.2971 85.5257 36.9943 85.4 36.7371 85.0114 36.8686 84.6229 36.9543 84.28 37.08 84.28 37.2114 84.3257 37.2971 84.4114 37.4229ZM78.12 36.1771C78.12 36.1771 78.1657 36.1771 78.12 36.1771 78.1657 36.1314 78.12 36.1314 78.12 36.1771 78.12 36.1314 78.12 36.1771 78.12 36.1771ZM52.68 30.1943C52.8971 29.9771 52.8971 29.5486 52.68 29.3314 52.4629 29.1143 52.08 29.1143 51.8629 29.3314 51.6457 29.5486 51.6457 29.9771 51.8629 30.1943 52.12 30.4114 52.4629 30.4114 52.68 30.1943ZM51.6457 34.0229C51.9886 34.3657 52.5943 34.3657 52.9371 34.0229 53.28 33.68 53.28 33.0743 52.9371 32.7314 52.5943 32.3886 51.9886 32.3886 51.6457 32.7314 51.3029 33.0743 51.2571 33.68 51.6457 34.0229ZM43.9429 50.3371C43.4286 50.8514 43.3829 51.7143 43.8114 52.32 44.6743 51.8057 45.5314 51.2857 46.3943 50.7714 46.3086 50.6 46.2229 50.4686 46.0914 50.3429 45.4457 49.7429 44.4971 49.7429 43.9371 50.3429ZM78.4229 87.0114C78.3772 87.3143 78.2914 87.6114 78.2514 87.9143L78.5086 88.0457C78.64 87.7429 78.64 87.3543 78.4229 87.0114ZM42.44 70.5657C42.5257 70.48 42.5714 70.4343 42.6114 70.3486 41.7943 69.7486 41.0171 69.1429 40.2457 68.5429 39.7714 69.1029 39.7714 70.0057 40.3314 70.5257 40.8457 71.0857 41.84 71.1257 42.44 70.5714ZM81.5657 33.76C81.8229 33.5429 81.8229 33.2 81.5657 32.9429 81.3486 32.7257 81.0514 32.7257 80.8343 32.9429 80.5771 33.16 80.5771 33.5029 80.8343 33.72 81.0514 33.9771 81.3486 33.9771 81.5657 33.7657ZM66.6286 85.4971C66.2 85.28 65.7657 85.0229 65.3371 84.8057 65.3829 84.8914 65.4686 84.9771 65.5086 85.0629 65.8514 85.3657 66.24 85.4914 66.6286 85.4914ZM84.8343 90.7486C84.88 90.7486 84.92 90.7943 84.9657 90.7943 84.92 90.7486 84.88 90.7486 84.8343 90.7486ZM49.5829 77.8343C50.1829 77.2743 50.1829 76.3257 49.6286 75.7257 49.0686 75.1257 48.12 75.1257 47.52 75.68 46.92 76.24 46.92 77.1886 47.4743 77.7886 48.0743 78.3886 48.9829 78.3886 49.5829 77.8343ZM47.6457 74.0457C47.7771 74.1771 47.9486 74.3029 48.16 74.3486 47.9429 74.2171 47.7714 74.0914 47.56 73.96 47.6057 73.96 47.6457 74.0057 47.6457 74.0457ZM59.7829 81.7086C59.2229 81.3657 58.6229 81.0171 58.0629 80.6743 58.1086 80.9314 58.2343 81.1486 58.4514 81.32 58.7943 81.7086 59.3143 81.8343 59.7886 81.7086ZM47.5143 79.2971C46.9143 79.8971 46.9143 80.8457 47.5143 81.4514 48.1143 82.0114 49.0629 82.0114 49.6229 81.4057 50.1829 80.8057 50.1829 79.8571 49.6229 79.2971 49.0229 78.7371 48.0743 78.7371 47.5143 79.2971ZM62.3657 94.1886C62.0229 94.5314 62.0229 95.1372 62.3657 95.48 62.7086 95.8229 63.3143 95.8229 63.6571 95.48 64 95.1372 64 94.5314 63.6571 94.1886 63.3143 93.8457 62.6686 93.8457 62.3657 94.1886ZM62.5829 98.0629C62.3657 98.28 62.3657 98.6629 62.5829 98.88 62.8 99.0971 63.1829 99.0971 63.4 98.88 63.6171 98.6629 63.6171 98.28 63.4 98.0629 63.1829 97.8057 62.8 97.8457 62.5829 98.0629ZM66.24 98.0629C66.0229 98.32 66.0229 98.5771 66.1943 98.84 66.4114 99.0971 66.7543 99.0971 67.0114 98.84 67.2286 98.6229 67.2286 98.3257 67.0114 98.1086 66.84 97.8514 66.4514 97.8514 66.2343 98.0629ZM62.0629 86.6114C61.5029 87.1714 61.5029 87.9886 62.0629 88.5486 62.6229 89.1086 63.44 89.1086 64 88.5486 64.56 87.9886 64.56 87.1714 64 86.6114 63.44 86.0971 62.5771 86.0971 62.0629 86.6114ZM62.1943 90.3543C61.72 90.7829 61.72 91.56 62.1486 92.0343 62.6229 92.5086 63.3543 92.5086 63.8286 92.0343 64.3029 91.6057 64.3029 90.8286 63.8743 90.3543 63.4457 89.9257 62.6686 89.9257 62.1943 90.3543ZM58.7943 94.1429C58.4514 94.4857 58.4057 95.0457 58.7086 95.3886 59.0514 95.7771 59.6571 95.7771 60 95.4343 60.3429 95.0914 60.3886 94.5314 60.0457 94.1429 59.7429 93.84 59.1429 93.84 58.8 94.1429ZM64.0914 85.0629C64.3086 84.8457 64.4343 84.5886 64.48 84.3314 63.6171 83.8571 62.76 83.3829 61.9429 82.9086 61.3829 83.5086 61.3829 84.4571 61.9429 85.0171 62.5029 85.6171 63.4914 85.6629 64.0971 85.0629ZM58.5371 90.4C58.1086 90.8743 58.1086 91.6057 58.5371 92.08 59.0114 92.5543 59.7829 92.5543 60.2171 92.08 60.6514 91.6057 60.6457 90.8743 60.2171 90.4 59.7886 89.9257 59.0114 89.9257 58.5371 90.4ZM58.32 82.9086C57.72 83.4686 57.72 84.4571 58.2743 85.0629 58.8343 85.6629 59.8229 85.6629 60.4286 85.1086 61.0286 84.5486 61.0286 83.56 60.4743 82.9543 59.92 82.3486 58.9257 82.3086 58.32 82.9086ZM58.4514 86.6114C57.9371 87.1257 57.8914 87.9886 58.4514 88.5486 59.0114 89.1086 59.8743 89.1086 60.3886 88.5943 60.9486 88.0343 60.9486 87.1714 60.3886 86.6571 59.8286 86.0971 58.9657 86.0971 58.4514 86.6114ZM69.4686 90.44C68.9943 90.8686 68.9943 91.6 69.4686 92.0343 69.8971 92.4629 70.5886 92.4629 71.0171 92.0343 71.4457 91.6057 71.4457 90.9143 71.0171 90.4857 70.5886 90.0114 69.8971 90.0114 69.4686 90.44ZM74.5886 91.9029C74.9771 91.5143 74.9771 90.8286 74.5429 90.44 74.1543 90.0514 73.5086 90.0514 73.12 90.4857 72.7314 90.8743 72.7314 91.56 73.12 91.9486 73.5086 92.3371 74.1943 92.3371 74.5829 91.9029ZM77.0857 94.4C76.8686 94.6171 76.8286 94.96 77.04 95.2171 77.2571 95.4743 77.64 95.4743 77.9029 95.3029 78.12 95.0857 78.16 94.7429 77.9486 94.4857 77.7314 94.2286 77.3029 94.1829 77.0857 94.4ZM77.6457 90.7429C77.56 91.2171 77.4286 91.6457 77.3029 92.08 77.56 92.1257 77.8629 92.0343 78.08 91.8229 78.2971 91.6114 78.3829 91.3086 78.3371 91.0057 78.12 90.92 77.9086 90.8343 77.6457 90.7486ZM65.68 86.6114C65.12 87.1257 65.12 88.0343 65.6343 88.5486 66.1486 89.0629 67.0114 89.1086 67.5257 88.5943 68.0857 88.08 68.0857 87.1714 67.5714 86.6571 67.0971 86.0971 66.2343 86.0971 65.68 86.6114ZM66.0229 94.1886C65.6343 94.5314 65.6343 95.0914 66.0229 95.4343 66.3657 95.7771 66.8857 95.7771 67.2286 95.4343 67.6171 95.0914 67.6171 94.5314 67.2286 94.1886 66.8857 93.8857 66.3657 93.8457 66.0229 94.1886ZM69.64 94.2743C69.3371 94.6171 69.3371 95.1372 69.6857 95.4343 70.0343 95.7314 70.5486 95.7371 70.8457 95.3886 71.1429 95.04 71.1486 94.5714 70.8457 94.2286 70.5029 93.9257 69.9429 93.9257 69.64 94.2743ZM65.8114 90.4C65.3829 90.8743 65.3829 91.6057 65.8571 92.0343 66.3314 92.4629 67.0629 92.4629 67.4914 91.9886 67.92 91.5143 67.92 90.7829 67.4457 90.3543 66.9714 89.9257 66.24 89.9657 65.8114 90.4ZM71.1943 88.5086C71.3657 88.3371 71.4514 88.12 71.5371 87.9086 70.76 87.52 69.9886 87.1771 69.2571 86.7886 68.8286 87.3029 68.8686 88.0343 69.3429 88.5086 69.8571 89.0686 70.68 89.0686 71.1943 88.5086ZM51.0914 79.3429C50.5314 79.9429 50.5314 80.8914 51.0914 81.4514 51.6914 82.0514 52.64 82.0514 53.2457 81.4514 53.8057 80.8514 53.8057 79.8571 53.2457 79.2971 52.6457 78.7371 51.6514 78.7371 51.0914 79.3429ZM47.6057 83C47.0457 83.5143 47.0457 84.4229 47.6057 84.9371 48.12 85.4514 48.9829 85.4514 49.5429 84.9371 50.1029 84.4229 50.0571 83.56 49.5429 83 49.0286 82.5257 48.1657 82.4857 47.6057 83ZM51.7829 98.1543C52.0857 98.24 52.3429 98.3257 52.6457 98.3714 52.4743 97.8971 52.2171 97.8571 51.7829 98.1543ZM96.12 65.4857C95.8171 65.1829 95.3886 65.2286 95.0857 65.5314 94.8286 65.8343 94.8286 66.2629 95.0857 66.52 95.3886 66.7771 95.8171 66.8229 96.0743 66.52 96.4171 66.2171 96.4171 65.7429 96.12 65.4857ZM51.6571 94.28C51.3543 94.5829 51.3543 95.0971 51.6571 95.4 51.96 95.7029 52.4343 95.7029 52.7314 95.4 53.0286 95.0971 53.0343 94.6229 52.7314 94.3257 52.4286 94.0229 51.9543 93.9829 51.6571 94.28ZM47.9143 90.5371C47.5257 90.9257 47.5257 91.5257 47.9143 91.9143 48.3029 92.3029 48.8629 92.3029 49.2514 91.9143 49.64 91.5257 49.64 90.9657 49.2514 90.5771 48.8629 90.1886 48.3029 90.1886 47.9143 90.5314ZM47.7429 86.7486C47.2686 87.2229 47.2686 87.9543 47.7429 88.4286 48.2171 88.9029 48.9486 88.9029 49.4229 88.4286 49.8971 87.9543 49.8971 87.2229 49.4229 86.7486 48.9486 86.2743 48.1771 86.32 47.7429 86.7486ZM48.1314 94.3657C47.8743 94.6229 47.8286 95.0114 48.0857 95.2686 48.3429 95.5257 48.6857 95.5257 48.9486 95.3143 49.2114 95.1029 49.2514 94.7143 49.0343 94.4514 48.8171 94.1486 48.4343 94.1086 48.1314 94.3657ZM59.0229 98.0686C58.8057 98.3257 58.7657 98.5829 58.9771 98.8457 59.1886 99.1086 59.5371 99.1029 59.7543 98.8914 59.9714 98.68 59.9714 98.3314 59.8 98.1143 59.6286 97.8571 59.24 97.8114 59.0229 98.0686ZM51.4457 90.4514C51.0171 90.88 51.0171 91.5714 51.4 91.96 51.8286 92.3886 52.4743 92.3886 52.9086 92.0057 53.3371 91.5771 53.3371 90.8857 52.9543 90.4971 52.5257 90.0686 51.88 90.0686 51.4457 90.4514ZM43.9543 75.6457C43.3543 76.2457 43.3543 77.1943 43.9543 77.8 44.5543 78.36 45.5029 78.36 46.0629 77.8 46.6229 77.2 46.6229 76.2914 46.0629 75.6914 45.5029 75.0914 44.5543 75.0457 43.9543 75.6457ZM54.8457 86.6629C54.3314 87.1771 54.3314 88.04 54.8 88.5543 55.3143 89.0686 56.1771 89.1143 56.7371 88.6 57.2514 88.0857 57.2514 87.2229 56.7829 86.7086 56.2686 86.1486 55.36 86.1486 54.8457 86.6629ZM54.9771 90.4514C54.5486 90.9257 54.5486 91.6114 55.0229 92.0457 55.4971 92.48 56.1829 92.4743 56.6171 92.0457 57.0514 91.6171 57.0914 90.8857 56.6171 90.4514 56.1429 89.9771 55.4571 89.9771 54.9829 90.4514ZM55.2343 94.1943C54.8914 94.5371 54.8457 95.0572 55.1886 95.4 55.5314 95.7429 56.0514 95.7886 56.3943 95.4457 56.7371 95.1029 56.7371 94.5829 56.44 94.24 56.0971 93.8971 55.5771 93.8971 55.2343 94.1943ZM54.76 82.9143C54.16 83.4743 54.16 84.4229 54.7143 85.0229 55.2743 85.6229 56.2629 85.6229 56.8686 85.0686 57.4686 84.5086 57.4686 83.56 56.9143 82.96 56.3143 82.36 55.32 82.36 54.76 82.9143ZM51.1886 82.96C50.5886 83.52 50.5886 84.4686 51.1886 85.0286 51.7486 85.5886 52.6514 85.5886 53.2114 85.0286 53.8114 84.4686 53.8114 83.52 53.2114 82.96 52.6514 82.4 51.7486 82.4 51.1886 82.96ZM51.2743 86.7029C50.76 87.2171 50.76 88.04 51.2743 88.5086 51.7886 89.0229 52.5657 89.0229 53.08 88.5086 53.5943 87.9943 53.5943 87.1714 53.08 86.7029 52.5657 86.1886 51.7886 86.1886 51.2743 86.7029ZM43.9543 79.3829C43.3943 79.9429 43.3943 80.76 43.9543 81.32 44.5143 81.88 45.3314 81.88 45.8914 81.32 46.4514 80.76 46.4514 79.9429 45.9371 79.3829 45.3771 78.8686 44.5143 78.8229 43.9543 79.3829ZM55.4457 98.0629C55.1886 98.28 55.1886 98.6229 55.4 98.7943 55.6571 99.0114 55.8743 99.0114 56.1314 98.7943 56.3486 98.5371 56.3886 98.32 56.1314 98.0629 55.96 97.8457 55.7029 97.8457 55.44 98.0629ZM52.7314 62.7657C53.0343 62.5086 53.0343 61.9886 52.7771 61.7314 52.52 61.4286 52 61.4286 51.7029 61.6857 51.4 61.9429 51.4 62.4629 51.6571 62.72 51.96 63.0229 52.4743 63.0629 52.7314 62.7657ZM60.1771 77.5314C60.6057 77.1029 60.6057 76.4114 60.2229 75.9829 59.7943 75.5543 59.0629 75.5086 58.6286 75.9371 58.24 76.28 58.2 76.8857 58.4571 77.3143 58.76 77.4857 59.0571 77.6571 59.32 77.8286 59.6229 77.8743 59.9657 77.7429 60.1829 77.5257ZM55.6571 75.5486C56.0857 75.8057 56.52 76.1086 56.9486 76.3657 56.9029 76.1943 56.8171 76.0629 56.6914 75.9371 56.3886 75.6343 56 75.5086 55.6571 75.5486ZM76.7086 86.7829C76.6229 86.8686 76.5371 87 76.4914 87.0857 76.5771 87.1314 76.7086 87.1714 76.7943 87.2171 76.84 87 76.84 86.8286 76.88 86.6171 76.7943 86.7029 76.7486 86.7486 76.7086 86.7886ZM41.7143 53.5543C41.24 53.4229 40.7257 53.6 40.3371 53.9829 40.12 54.2 39.9943 54.4571 39.9486 54.7143 40.5486 54.3257 41.1086 53.9371 41.7143 53.5543ZM49.4629 70.3429C49.9771 69.8686 49.9771 69.0971 49.5086 68.6229 49.0343 68.1486 48.3029 68.1486 47.8286 68.5771 47.3543 69.0514 47.3143 69.7829 47.7829 70.2971 47.9143 70.3829 48.04 70.4686 48.1714 70.5543 48.56 70.7714 49.0743 70.6857 49.4629 70.3371ZM33.1943 62.9371 33.3257 63.0686C33.4971 63.24 33.7543 63.3714 34.0171 63.4114 33.8 63.24 33.5886 63.0229 33.3714 62.8514 33.3257 62.8514 33.2857 62.8971 33.2 62.9371ZM29.9257 61.56C29.7943 61.6914 29.7086 61.8629 29.6686 62.0343 29.9714 61.8171 30.2686 61.56 30.5314 61.3429 30.3143 61.3429 30.1029 61.3886 29.9314 61.56ZM42.4514 64.7886C41.8514 64.2286 40.9029 64.2286 40.3429 64.7886 41.12 65.3886 41.9371 65.9943 42.7086 66.5943 43.0114 66.0343 42.9657 65.2571 42.4514 64.7886ZM82.2229 72.1486C81.6629 71.5886 80.7143 71.5486 80.1143 72.1029 79.9429 72.2343 79.8571 72.4057 79.7714 72.6171 79.7714 73.0057 79.7714 73.3486 79.7257 73.6914 79.8114 73.9086 79.8971 74.08 80.0686 74.2514 80.6286 74.8514 81.6171 74.8514 82.2229 74.2971 82.8229 73.6971 82.8229 72.7029 82.2229 72.1429ZM52.9543 72.32C52.5257 71.8914 51.8343 71.8914 51.4057 72.32 51.32 72.4057 51.2343 72.5371 51.1886 72.6229 51.7886 73.0514 52.4343 73.44 53.04 73.8286 53.4286 73.44 53.3829 72.7543 52.9543 72.32ZM83.9486 47.0114C83.4343 47.4857 83.4343 48.2571 83.9029 48.7771 84.3772 49.2514 85.1086 49.2514 85.6229 48.7771 86.0971 48.3029 86.1372 47.5714 85.6686 47.0571 85.2 46.5429 84.4229 46.5429 83.9486 47.0114ZM84.2057 40.04C83.8171 40.3829 83.8171 40.9429 84.16 41.2857 84.5029 41.6286 85.0229 41.6286 85.3657 41.2857 85.7086 40.9429 85.7086 40.4229 85.4114 40.08 85.0686 39.6914 84.5486 39.6914 84.2057 40.0343ZM83.9886 43.5257C83.56 43.9543 83.6 44.6457 84.0343 45.0743 84.4686 45.5029 85.1543 45.4629 85.5829 45.0286 86.0114 44.5943 85.9714 43.9086 85.5371 43.48 85.1086 43.0914 84.4171 43.0914 83.9886 43.5257ZM85.7943 63.4114C86.3943 62.8514 86.3943 61.9486 85.84 61.3429 85.28 60.7429 84.3772 60.7429 83.7714 61.2971 83.1714 61.8971 83.1714 62.8057 83.7257 63.4057 84.3257 63.9657 85.2343 63.9657 85.7943 63.4057ZM83.7714 57.6857C83.2114 58.2457 83.1714 59.1943 83.7257 59.7543 84.28 60.3143 85.1886 60.3143 85.7486 59.8 86.3086 59.24 86.3486 58.2914 85.7943 57.7314 85.2343 57.1714 84.3314 57.1714 83.7714 57.6857ZM82.2629 54.0686C81.7029 53.4686 80.7143 53.4686 80.1086 54.0686 79.9371 54.24 79.8057 54.4971 79.72 54.7143 79.72 55.0171 79.72 55.3143 79.7657 55.6171 79.8514 55.8343 79.9371 56.0057 80.1086 56.1771 80.6686 56.7771 81.6571 56.7771 82.2629 56.1771 82.8229 55.6171 82.8229 54.6286 82.2629 54.0686ZM83.8114 54.1143C83.2514 54.6743 83.2514 55.5371 83.8114 56.0971 84.3714 56.6571 85.2343 56.6571 85.7943 56.0971 86.3543 55.5371 86.3543 54.72 85.7943 54.16 85.2343 53.6 84.3714 53.6 83.8114 54.1143ZM82.2171 68.5314C81.6171 67.9314 80.6229 67.9314 80.0629 68.5314 79.9771 68.6629 79.8914 68.7486 79.8057 68.8743L79.8057 70.2971C79.8914 70.4286 79.9771 70.6 80.1086 70.6857 80.7086 71.2457 81.7029 71.2457 82.2629 70.64 82.8229 70.04 82.8229 69.0914 82.2171 68.5314ZM83.8514 50.5371C83.3371 51.0514 83.3371 51.9143 83.8514 52.4286 84.3657 52.9429 85.2286 52.9429 85.7429 52.4286 86.2571 51.9143 86.2571 51.0514 85.7429 50.5371 85.2286 50.0629 84.3657 50.0629 83.8514 50.5371ZM49.5429 54.1086C49.0286 53.5943 48.2514 53.5943 47.7371 54.0629 47.2229 54.5771 47.2229 55.4 47.6914 55.8686 48.2057 56.3829 48.9829 56.3829 49.4971 55.9143 50.0114 55.44 50.0114 54.6229 49.5429 54.1086ZM85.7886 66.9771C86.3486 66.4171 86.3486 65.4686 85.7886 64.9086 85.2286 64.3486 84.28 64.3486 83.72 64.9086 83.16 65.4686 83.16 66.4171 83.72 66.9771 84.32 67.5771 85.2286 67.5771 85.7886 66.9771ZM49.4171 57.7657C48.9886 57.3371 48.2571 57.3371 47.7829 57.7657 47.3086 58.1943 47.3086 58.9714 47.7829 59.4 48.2114 59.8743 48.9886 59.8286 49.4171 59.4 49.8914 58.9714 49.8914 58.1943 49.4171 57.7657ZM49.3714 63.0171C49.8 62.6286 49.8 61.8971 49.4171 61.4686 49.0343 61.04 48.2971 61.04 47.8686 61.4229 47.44 61.8057 47.44 62.5429 47.8229 62.9714 48.2514 63.4 48.9429 63.4 49.3714 63.0171ZM49.6286 52.3829C49.4114 52.5143 49.2 52.64 48.9829 52.7714 49.2 52.6857 49.4571 52.6 49.6286 52.3829ZM52.9429 54.2743C52.5543 53.8857 51.8686 53.8857 51.48 54.2743 51.0914 54.6629 51.0914 55.3086 51.48 55.6971 51.8686 56.0857 52.5543 56.1257 52.9429 55.6971 53.3314 55.3086 53.3314 54.6629 52.9429 54.2743ZM52.8114 58.0171C52.5086 57.7143 51.9486 57.7143 51.6514 58.0171 51.3543 58.32 51.3486 58.92 51.6514 59.2229 51.9543 59.5257 52.5143 59.5257 52.8114 59.2229 53.1143 58.88 53.1143 58.32 52.8114 58.0171ZM51.6057 70.0686C51.9486 70.4114 52.5086 70.4114 52.8514 70.0686 53.1943 69.7257 53.1943 69.1657 52.8514 68.8229 52.5086 68.48 51.9486 68.48 51.6057 68.8229 51.2629 69.1657 51.2629 69.7257 51.6057 70.0686ZM47.8171 66.6229C48.2457 67.0514 48.9371 67.0514 49.3657 66.6229 49.7943 66.1943 49.7943 65.5029 49.3657 65.0743 48.9371 64.6457 48.2457 64.6457 47.8171 65.0743 47.3886 65.4629 47.3886 66.1943 47.8171 66.6229ZM40.2857 59.6514C40.8457 60.2514 41.8343 60.2514 42.44 59.6514 43.04 59.0914 43.04 58.1029 42.44 57.4971 42.2229 57.28 41.9657 57.1543 41.7086 57.1086 41.1086 57.4971 40.5029 57.8857 39.9029 58.2686 39.8171 58.7429 39.9486 59.3029 40.2914 59.6457ZM43.9429 56.0343C44.5429 56.6343 45.4514 56.6343 46.0514 56.0343 46.5257 55.56 46.6114 54.8743 46.3086 54.3143 45.4457 54.8286 44.6286 55.3029 43.7714 55.8229 43.8171 55.9086 43.9029 55.9543 43.9429 56.04ZM44.0286 66.7943C44.5886 67.3543 45.4514 67.3543 46.0114 66.7943 46.5714 66.2343 46.5257 65.4171 46.0114 64.8571 45.4514 64.2971 44.5886 64.2971 44.0286 64.8571 43.4686 65.4171 43.4686 66.28 44.0286 66.7943ZM38.7314 59.56C38.9486 59.3429 39.0743 59.0857 39.12 58.8286 38.56 59.2171 38 59.56 37.4857 59.9486 37.9143 60.0343 38.3886 59.9029 38.7314 59.56ZM38.7314 61.24C38.2171 60.7257 37.3543 60.7257 36.7943 61.24 36.6629 61.3714 36.5771 61.4971 36.4914 61.6686 37.1829 62.2286 37.8286 62.7886 38.5143 63.3486 38.6 63.3029 38.6457 63.2629 38.6857 63.1771 39.2857 62.6171 39.2857 61.7543 38.7314 61.24ZM42.4343 63.3086C43.0343 62.7486 43.0343 61.76 42.48 61.1543 41.92 60.5543 40.9314 60.5543 40.3257 61.1086 39.7257 61.6686 39.7257 62.6571 40.28 63.2629 40.88 63.8629 41.8286 63.8629 42.4343 63.3086ZM96.0686 69.0743C95.8114 68.8171 95.3772 68.8171 95.12 69.0743 94.8629 69.3314 94.8629 69.7657 95.12 70.0229 95.3772 70.28 95.8114 70.28 96.0686 70.0229 96.3257 69.7657 96.3257 69.3314 96.0686 69.0743ZM26.5543 58.96C26.7714 59.1771 27.1143 59.1771 27.3314 58.96 27.5486 58.7429 27.5486 58.4 27.3314 58.1829 27.1143 57.9657 26.8571 57.9657 26.6 58.1829 26.3429 58.4 26.3429 58.7429 26.5543 58.96ZM45.9657 63.1771C46.5257 62.6171 46.5257 61.8 45.9657 61.24 45.4057 60.68 44.5886 60.68 44.0286 61.24 43.4686 61.8 43.4686 62.6171 44.0286 63.1771 44.5429 63.7371 45.4057 63.7371 45.9657 63.1771ZM46.0114 57.5829C45.4514 57.0229 44.5486 57.0229 43.9886 57.5829 43.4286 58.1429 43.4286 59.0457 43.9886 59.6057 44.5486 60.1657 45.4514 60.1657 46.0114 59.6057 46.5714 59.0914 46.5714 58.1429 46.0114 57.5829ZM27.3314 62.5771C27.5486 62.32 27.5486 62.0629 27.3314 61.8457 27.1143 61.5886 26.7714 61.5886 26.5543 61.8457 26.3371 62.1029 26.3371 62.36 26.5543 62.6229 26.7257 62.84 27.0686 62.84 27.3314 62.5771ZM92.6743 72.52C92.3314 72.1314 91.6857 72.1771 91.3371 72.52 90.9943 72.8629 90.9943 73.4686 91.3371 73.8114 91.68 74.2 92.3257 74.1543 92.6743 73.8114 93.0229 73.4686 93.0171 72.8629 92.6743 72.52ZM91.2514 63.0914C91.68 63.52 92.3257 63.52 92.76 63.0914 93.1943 62.6629 93.1886 62.0171 92.76 61.5829 92.3314 61.1486 91.6857 61.1543 91.2514 61.5829 90.8171 62.0114 90.8229 62.6571 91.2514 63.0914ZM91.2514 59.4343C91.64 59.8229 92.2857 59.8229 92.7143 59.4343 93.1029 59.0457 93.1029 58.4 92.7143 57.9714 92.3257 57.5829 91.68 57.5829 91.2514 57.9714 90.8229 58.36 90.8629 59.0457 91.2514 59.4343ZM91.5543 79.9657C91.2971 80.2229 91.2971 80.6114 91.5543 80.8686 91.8114 81.1257 92.2 81.1257 92.4571 80.8229 92.6743 80.5657 92.6743 80.1771 92.4114 79.96 92.1943 79.7029 91.8114 79.7029 91.5486 79.96ZM92.5429 76.2629C92.24 75.96 91.7657 75.92 91.4229 76.2171 91.08 76.52 91.08 76.9943 91.3772 77.3371 91.68 77.68 92.1943 77.68 92.4971 77.3829 92.8857 77.04 92.8857 76.5657 92.5429 76.2629ZM91.5086 48.3714C91.8114 48.6743 92.24 48.6286 92.5429 48.3257 92.8 48.0229 92.8 47.5943 92.4971 47.3371 92.1943 47.08 91.7657 47.08 91.5086 47.3371 91.2057 47.64 91.2057 48.1143 91.5086 48.3714ZM92.4114 44.6286C92.6286 44.3714 92.6286 44.1143 92.3657 43.8971 92.1486 43.68 91.7657 43.68 91.5886 43.8971 91.3714 44.1543 91.3714 44.4114 91.5886 44.6743 91.8057 44.8914 92.1886 44.8914 92.4057 44.6286ZM91.2914 55.7771C91.68 56.1657 92.28 56.1657 92.6686 55.7771 93.0572 55.3886 93.0572 54.7886 92.6686 54.4 92.28 54.0114 91.68 54.0114 91.2914 54.4457 90.9486 54.8343 90.9486 55.3943 91.2914 55.7829ZM91.3772 52.0743C91.72 52.4171 92.24 52.4171 92.5829 52.12 92.9257 51.7771 92.9257 51.2571 92.5829 50.9143 92.24 50.5714 91.72 50.5714 91.3772 50.8686 91.0343 51.2114 91.0343 51.7314 91.3772 52.0743ZM95.08 62.88C95.3829 63.1371 95.8571 63.1371 96.1143 62.88 96.3714 62.5771 96.3714 62.1029 96.1143 61.8457 95.8114 61.5886 95.3371 61.5886 95.08 61.8457 94.8229 62.1029 94.8229 62.5771 95.08 62.88ZM85.7829 70.5829C86.3429 70.0686 86.3429 69.12 85.8286 68.56 85.3143 68 84.3657 67.96 83.8057 68.5143 83.2457 69.0286 83.2457 69.9771 83.76 70.5371 84.2743 71.1371 85.2229 71.1371 85.7829 70.5829ZM95.1257 59.1771C95.3829 59.48 95.8171 59.48 96.1143 59.1771 96.3714 58.92 96.4171 58.4857 96.16 58.2286 95.9029 57.9257 95.4686 57.9257 95.1714 58.1829 94.8686 58.4857 94.8286 58.9143 95.1257 59.1714ZM96.0286 72.7771C95.8114 72.56 95.4286 72.56 95.1657 72.7771 94.9486 72.9943 94.9486 73.3772 95.1657 73.64 95.3829 73.9029 95.7657 73.8571 96.0286 73.64 96.2457 73.3829 96.2457 72.9943 96.0286 72.7771ZM95.2514 76.4343C95.0343 76.6514 95.08 76.9086 95.3371 77.2514 95.4686 77.2514 95.68 77.2971 95.8114 77.2057 96.0686 77.0343 96.1143 76.5143 95.9429 76.3886 95.6857 76.2171 95.4686 76.2171 95.2514 76.4343ZM92.7143 65.2C92.2857 64.7714 91.68 64.7714 91.2514 65.2 90.8229 65.6286 90.8229 66.2743 91.2057 66.6629 91.6343 67.0914 92.28 67.0914 92.6686 66.6629 93.1429 66.2743 93.1429 65.6286 92.7143 65.2ZM95.9829 51.8571C96.2 51.64 96.2 51.3829 95.9829 51.1257 95.7657 50.8686 95.4229 50.8686 95.2057 51.08 94.9886 51.2914 94.9486 51.5943 95.16 51.8571 95.3772 52.0743 95.76 52.1143 95.9771 51.8571ZM92.7143 68.8571C92.3257 68.4686 91.68 68.4286 91.2914 68.8114 90.9029 69.1943 90.8629 69.8857 91.2457 70.2743 91.6286 70.6629 92.28 70.6629 92.6686 70.2743 93.0971 69.9314 93.0971 69.24 92.7143 68.8514ZM95.1257 55.5143C95.3829 55.7714 95.7714 55.8171 96.0286 55.56 96.2857 55.3029 96.2857 54.96 96.0743 54.6971 95.8171 54.44 95.4286 54.3943 95.1714 54.6514 94.9143 54.8686 94.9143 55.2514 95.1257 55.5143ZM89.3143 65.0686C88.84 64.5543 88.0229 64.5543 87.5086 65.0229 86.9943 65.5371 86.9943 66.36 87.5086 66.8743 88.0229 67.3486 88.8 67.3486 89.3143 66.8743 89.7886 66.36 89.7886 65.5371 89.3143 65.0686ZM85.2229 88.1429C85.5257 87.84 85.5257 87.3657 85.2686 87.0686 84.9657 86.7657 84.4914 86.7657 84.1943 87.0229 83.8971 87.28 83.8914 87.8 84.1486 88.0971 84.4514 88.4 84.9257 88.4 85.2229 88.1429ZM87.8057 44.8857C88.1486 45.1886 88.6686 45.1886 89.0114 44.84 89.3143 44.4971 89.3143 43.9771 88.9657 43.6343 88.6229 43.3314 88.1029 43.3314 87.76 43.68 87.4571 43.9829 87.4571 44.5429 87.8057 44.8857ZM87.5886 52.2914C88.0629 52.7657 88.7486 52.7657 89.1829 52.2914 89.6571 51.8171 89.6114 51.1314 89.1829 50.6971 88.7543 50.2629 88.0629 50.2686 87.6343 50.6971 87.12 51.1257 87.12 51.8171 87.5886 52.2914ZM87.6343 48.5886C88.0229 48.9771 88.7086 49.0171 89.0971 48.6343 89.4857 48.2514 89.4857 47.6 89.1429 47.2114 88.7543 46.8229 88.0686 46.7829 87.68 47.1657 87.2914 47.5086 87.2914 48.1543 87.6343 48.5886ZM88.7943 41.0971C89.0514 40.84 89.0514 40.4971 88.7943 40.2343 88.5371 39.9714 88.1943 39.9771 87.9314 40.2343 87.6686 40.4914 87.6743 40.8343 87.9314 41.0971 88.1886 41.3143 88.5314 41.3143 88.7943 41.0971ZM85.6514 77.6857C86.1257 77.1714 86.1257 76.3943 85.6514 75.88 85.1371 75.3657 84.3143 75.3657 83.8 75.88 83.3257 76.3943 83.3257 77.2171 83.8457 77.6857 84.36 78.2 85.1829 78.2 85.6514 77.6857ZM89.2686 68.6914C88.7943 68.2171 87.9771 68.2171 87.5029 68.6914 87.0286 69.1657 87.0286 69.9829 87.5029 70.4571 87.9771 70.9314 88.7943 70.9314 89.2686 70.4571 89.7429 69.9429 89.7429 69.1657 89.2686 68.6914ZM85.5657 81.2629C86.04 80.8343 86.04 80.0572 85.6114 79.6286 85.1829 79.2 84.4514 79.1543 83.9771 79.5829 83.5029 80.0114 83.5029 80.7429 83.9314 81.2171 84.36 81.6914 85.0914 81.6914 85.5657 81.2629ZM85.48 84.7486C85.8686 84.36 85.8686 83.7143 85.48 83.3257 85.0914 82.9371 84.4457 82.9829 84.1029 83.3257 83.7143 83.7143 83.7143 84.36 84.1029 84.7486 84.4457 85.0914 85.0914 85.0914 85.48 84.7486ZM85.7371 74.16C86.2971 73.6 86.2971 72.7371 85.7371 72.2229 85.2229 71.7086 84.36 71.7086 83.8 72.2229 83.24 72.7829 83.24 73.6457 83.8 74.16 84.36 74.6743 85.1771 74.6743 85.7371 74.16ZM89.0514 79.7543C88.7086 79.3657 88.1029 79.3657 87.7143 79.7543 87.3257 80.1429 87.3257 80.7429 87.7143 81.0914 88.1029 81.48 88.7029 81.4343 89.0514 81.0914 89.3943 80.7029 89.3943 80.1429 89.0514 79.7543ZM88.0171 87.2857C87.8 87.5029 87.8 87.8457 88.0171 88.0629 88.2343 88.28 88.5771 88.28 88.7943 88.0629 89.0114 87.8457 89.0114 87.5029 88.7486 87.2857 88.4914 87.0286 88.2343 87.0686 88.0171 87.2857ZM89.1372 76.0514C88.7086 75.6229 88.0171 75.6229 87.5886 76.0514 87.16 76.48 87.16 77.1714 87.5886 77.6 88.0171 78.0286 88.7086 78.0286 89.1372 77.6 89.5657 77.1714 89.5657 76.44 89.1372 76.0514ZM89.2229 72.3486C88.7486 71.8743 88.0171 71.8743 87.5429 72.3486 87.0686 72.8229 87.0686 73.5943 87.5429 74.0286 88.0171 74.5029 88.7886 74.5029 89.2229 74.0286 89.6571 73.5543 89.6514 72.8229 89.2229 72.3486ZM88.92 83.4971C88.6629 83.1943 88.1429 83.1943 87.8857 83.4971 87.5829 83.7543 87.5829 84.2743 87.8857 84.5314 88.1886 84.7886 88.6629 84.8343 88.92 84.5314 89.1771 84.2743 89.1771 83.8 88.92 83.4971ZM87.4971 55.9486C87.9714 56.4229 88.7429 56.4229 89.2171 55.9486 89.6914 55.4743 89.6914 54.7029 89.2171 54.2286 88.7429 53.7543 87.9714 53.7543 87.4971 54.2286 87.0229 54.7429 87.0229 55.4743 87.4971 55.9486ZM87.4514 59.6057C87.9257 60.12 88.7429 60.12 89.2571 59.6057 89.7314 59.1314 89.7314 58.3143 89.3029 57.84 88.8286 57.3257 88.0114 57.3257 87.4971 57.7943 86.9829 58.2686 86.9829 59.0857 87.4514 59.6ZM87.4514 63.2229C87.9657 63.7371 88.7886 63.7371 89.2571 63.2229 89.7257 62.7086 89.7314 61.9314 89.2571 61.4171 88.7429 60.9029 87.92 60.9029 87.4514 61.4171 86.9829 61.9314 86.9771 62.7543 87.4514 63.2229Z" fill="url(#fill6)" fill-rule="nonzero" transform="matrix(1 0 0 1.00227 1049 1)"/><path d="M50.2914 105.343C49.2171 102.2 48.5257 98.9714 48.1829 95.7429 48.8743 98.9257 49.9486 102.029 51.28 104.954L50.2914 105.343Z" fill="url(#fill7)" fill-rule="nonzero" transform="matrix(1 0 0 1.00227 1049 1)"/><path d="M47.6629 31.6114C47.88 30.1886 48.1371 28.8114 48.3943 27.3943 48.6971 25.9714 48.9943 24.5943 49.3429 23.2171 50.0343 20.4629 50.8914 17.7086 51.9714 15.04 52.5314 13.7029 53.1314 12.4114 53.8629 11.1257 54.5943 9.84 55.3714 8.62857 56.4 7.55429 57.3886 6.48 58.64 5.48571 60.1429 5.01714 61.6514 4.54286 63.3714 4.8 64.7029 5.57714 66.08 6.35429 67.1543 7.42857 68.0629 8.54857 69.0114 9.70857 69.7429 10.96 70.4286 12.2514 71.8057 14.8343 72.84 17.5486 73.7429 20.2571 75.5086 25.7657 76.6286 31.4057 77.4457 37.0857 78.2629 42.7657 78.7371 48.4914 78.9543 54.2171 79.0857 57.0571 79.0857 59.9429 79.0857 62.7829 79.0857 65.6229 79.2171 68.4629 79.1714 71.3486 79.1714 74.2343 79.04 77.0743 78.8286 79.96 78.6114 82.8 78.2286 85.6857 77.7543 88.48 76.68 94.12 75.1257 99.6286 72.8457 104.88 76.76 94.16 78.2286 82.7143 77.9257 71.3486 77.88 68.5086 77.7086 65.6686 77.6686 62.7829 77.6229 59.9429 77.5829 57.1029 77.4114 54.2629 77.1543 48.5829 76.6343 42.9429 75.8171 37.3029 75 31.7086 73.88 26.1086 72.2457 20.7314 71.4286 18.0171 70.44 15.3943 69.1486 12.8971 68.5029 11.6514 67.8114 10.4457 66.9543 9.36571 66.1371 8.29143 65.1486 7.29714 64.0286 6.61143 62.9086 5.92571 61.5771 5.70857 60.3714 6.05143 59.1257 6.39429 58.0057 7.21143 57.0571 8.20571 56.1086 9.2 55.2914 10.36 54.56 11.52 53.8286 12.7257 53.1829 13.9714 52.6229 15.2629 50.3829 20.5143 48.92 26.0686 47.6743 31.6171Z" fill="url(#fill8)" fill-rule="nonzero" transform="matrix(1 0 0 1.00227 1049 1)"/><path d="M5.06857 121.56 5.06857 107.109 6.90286 107.109C7.68 109.783 9.69143 117.36 9.92572 118.543L9.96 118.543C9.87429 116.6 9.85143 114.566 9.85143 112.211L9.85143 107.114 11.3029 107.114 11.3029 121.566 9.53143 121.566C8.76 118.851 6.69143 110.897 6.41714 109.749L6.39429 109.749C6.49143 111.491 6.52571 113.8 6.52571 116.406L6.52571 121.566 5.06857 121.566Z" fill="#293E81" fill-rule="nonzero" fill-opacity="1" transform="matrix(1 0 0 1.00227 1049 1)"/><path d="M15.6171 107.109 15.6171 118.343C15.6171 119.537 16.0343 120.349 17.12 120.349 18.2057 120.349 18.6057 119.583 18.6057 118.354L18.6057 107.109 20.1543 107.109 20.1543 118.297C20.1543 120.531 19.1486 121.754 17.0914 121.754 15.0343 121.754 14.08 120.629 14.08 118.331L14.08 107.109 15.6171 107.109Z" fill="#293E81" fill-rule="nonzero" fill-opacity="1" transform="matrix(1 0 0 1.00227 1049 1)"/><path d="M22.9371 107.109 24.4571 107.109 24.4571 114.08 24.48 114.08C25.08 112.726 26.64 109.246 27.5714 107.109L29.2629 107.109 26.5029 112.846 29.5143 121.56 27.84 121.56 25.4743 114.451 24.4571 116.469 24.4571 121.554 22.9371 121.554 22.9371 107.103Z" fill="#293E81" fill-rule="nonzero" fill-opacity="1" transform="matrix(1 0 0 1.00227 1049 1)"/><path d="M31.0686 107.109 32.6057 107.109 32.6057 120.177 36.24 120.177 36.0686 121.56 31.0686 121.56 31.0686 107.109Z" fill="#293E81" fill-rule="nonzero" fill-opacity="1" transform="matrix(1 0 0 1.00227 1049 1)"/><path d="M42.6971 114.56 39.4571 114.56 39.4571 120.143 43.1371 120.143 42.9314 121.554 37.92 121.554 37.92 107.103 42.8857 107.103 42.8857 108.526 39.4571 108.526 39.4571 113.143 42.6971 113.143 42.6971 114.554Z" fill="#293E81" fill-rule="nonzero" fill-opacity="1" transform="matrix(1 0 0 1.00227 1049 1)"/><path d="M54.4914 107.109 54.4914 108.543 51.0743 108.543 51.0743 113.24 54.3086 113.24 54.3086 114.669 51.0743 114.669 51.0743 120.137 54.7429 120.137 54.5371 121.566 49.5371 121.566 49.5371 116.303 47.3657 116.303 45.8571 121.566 44.3143 121.566 48.4914 107.114 54.4857 107.114ZM49.5371 114.926 49.5371 108.269 49.4914 108.269C49.2971 109.2 48.7886 111.229 47.7371 114.926L49.5371 114.926Z" fill="#293E81" fill-rule="nonzero" fill-opacity="1" transform="matrix(1 0 0 1.00227 1049 1)"/><path d="M58.2229 114.811 58.2229 121.56 56.6857 121.56 56.6857 107.109 59.2114 107.109C61.3829 107.109 62.4514 108.046 62.4514 110.434L62.4514 111.097C62.4514 113.063 61.76 113.863 60.9771 114.143 61.8914 114.486 62.32 115.171 62.32 117.109 62.32 118.343 62.2971 120.657 62.4629 121.566L60.9657 121.566C60.7829 120.663 60.8171 118.234 60.8171 117.223 60.8171 115.349 60.5543 114.817 59.12 114.817L58.2229 114.817ZM58.2229 113.503 59.1657 113.503C60.5371 113.503 60.8971 112.709 60.8971 111.166L60.8971 110.52C60.8971 109.2 60.5371 108.411 59.0914 108.411L58.2229 108.411 58.2229 113.503Z" fill="#293E81" fill-rule="nonzero" fill-opacity="1" transform="matrix(1 0 0 1.00227 1049 1)"/><path d="M66.0229 117.491 66.0229 118.331C66.0229 119.691 66.4914 120.423 67.5086 120.423 68.5257 120.423 68.9543 119.674 68.9543 118.091 68.9543 116.4 68.5829 115.743 67.0629 114.554 65.5143 113.343 64.7314 112.617 64.7314 110.486 64.7314 108.657 65.28 106.897 67.5486 106.909 69.7029 106.92 70.2686 108.354 70.2686 110.189L70.2686 110.857 68.7429 110.857 68.7429 110.229C68.7429 109.029 68.5086 108.251 67.52 108.251 66.5314 108.251 66.2743 109.12 66.2743 110.251 66.2743 111.594 66.5429 112.103 67.8686 113.109 69.8743 114.623 70.5086 115.469 70.5086 117.869 70.5086 119.903 69.9257 121.749 67.4914 121.749 65.0571 121.749 64.4971 120.223 64.4971 118.314L64.4971 117.486 66.0343 117.486Z" fill="#293E81" fill-rule="nonzero" fill-opacity="1" transform="matrix(1 0 0 1.00227 1049 1)"/><path d="M77.5486 114.56 74.3086 114.56 74.3086 120.143 77.9886 120.143 77.7829 121.554 72.7714 121.554 72.7714 107.103 77.7371 107.103 77.7371 108.526 74.3086 108.526 74.3086 113.143 77.5486 113.143 77.5486 114.554Z" fill="#293E81" fill-rule="nonzero" fill-opacity="1" transform="matrix(1 0 0 1.00227 1049 1)"/><path d="M79.9143 121.56 79.9143 107.109 81.7486 107.109C82.5257 109.783 84.5371 117.36 84.7714 118.543L84.8057 118.543C84.72 116.6 84.6971 114.566 84.6971 112.211L84.6971 107.114 86.1486 107.114 86.1486 121.566 84.3772 121.566C83.6057 118.851 81.5371 110.897 81.2629 109.749L81.24 109.749C81.3371 111.491 81.3714 113.8 81.3714 116.406L81.3714 121.566 79.9143 121.566Z" fill="#293E81" fill-rule="nonzero" fill-opacity="1" transform="matrix(1 0 0 1.00227 1049 1)"/><path d="M90.3143 108.531 87.9771 108.531 87.9771 107.109 94.1771 107.109 94.1771 108.531 91.8514 108.531 91.8514 121.56 90.3143 121.56 90.3143 108.531Z" fill="#293E81" fill-rule="nonzero" fill-opacity="1" transform="matrix(1 0 0 1.00227 1049 1)"/><path d="M100.737 114.56 97.4971 114.56 97.4971 120.143 101.177 120.143 100.971 121.554 95.96 121.554 95.96 107.103 100.926 107.103 100.926 108.526 97.4971 108.526 97.4971 113.143 100.737 113.143 100.737 114.554Z" fill="#293E81" fill-rule="nonzero" fill-opacity="1" transform="matrix(1 0 0 1.00227 1049 1)"/><path d="M104.64 114.811 104.64 121.56 103.103 121.56 103.103 107.109 105.629 107.109C107.8 107.109 108.869 108.046 108.869 110.434L108.869 111.097C108.869 113.063 108.177 113.863 107.4 114.143 108.314 114.486 108.743 115.171 108.743 117.109 108.743 118.343 108.72 120.657 108.886 121.566L107.389 121.566C107.206 120.663 107.234 118.234 107.234 117.223 107.234 115.349 106.971 114.817 105.537 114.817L104.64 114.817ZM104.64 113.503 105.583 113.503C106.954 113.503 107.314 112.709 107.314 111.166L107.314 110.52C107.314 109.2 106.954 108.411 105.509 108.411L104.64 108.411 104.64 113.503Z" fill="#293E81" fill-rule="nonzero" fill-opacity="1" transform="matrix(1 0 0 1.00227 1049 1)"/><path d="M116.137 114.56 112.897 114.56 112.897 120.143 116.577 120.143 116.371 121.554 111.36 121.554 111.36 107.103 116.326 107.103 116.326 108.526 112.897 108.526 112.897 113.143 116.137 113.143 116.137 114.554Z" fill="#293E81" fill-rule="nonzero" fill-opacity="1" transform="matrix(1 0 0 1.00227 1049 1)"/><path d="M120.211 108.531 117.874 108.531 117.874 107.109 124.074 107.109 124.074 108.531 121.749 108.531 121.749 121.56 120.211 121.56 120.211 108.531Z" fill="#293E81" fill-rule="nonzero" fill-opacity="1" transform="matrix(1 0 0 1.00227 1049 1)"/></g></g></g></g></svg>